<?xml version="1.0" encoding="UTF-8"?>
<!DOCTYPE svg PUBLIC "-//W3C//DTD SVG 1.1//EN" "http://www.w3.org/Graphics/SVG/1.1/DTD/svg11.dtd">
<svg xmlns="http://www.w3.org/2000/svg" version="1.1" width="2048px" height="2048px" style="shape-rendering:geometricPrecision; text-rendering:geometricPrecision; image-rendering:optimizeQuality; fill-rule:evenodd; clip-rule:evenodd" xmlns:xlink="http://www.w3.org/1999/xlink">
<g><path style="opacity:0.974" fill="#fefffe" d="M 1020.5,152.5 C 1022.59,153.35 1024.59,153.684 1026.5,153.5C 1025.24,155.575 1025.41,157.575 1027,159.5C 1046.82,183.653 1065.49,208.653 1083,234.5C 1112.09,278.339 1141.42,322.006 1171,365.5C 1181.83,383.167 1192.67,400.833 1203.5,418.5C 1203.33,418.833 1203.17,419.167 1203,419.5C 1202,418.5 1201,417.5 1200,416.5C 1197.7,419.797 1195.04,422.797 1192,425.5C 1155.23,479.382 1117.23,532.382 1078,584.5C 1071.5,592.333 1065,600.167 1058.5,608C 1076.77,639.699 1093.6,672.199 1109,705.5C 1164.95,671.102 1222.11,638.602 1280.5,608C 1360.82,566.837 1441.49,526.171 1522.5,486C 1544.33,475.612 1566.33,465.612 1588.5,456C 1590.72,452.377 1593.06,448.877 1595.5,445.5C 1595.83,445.833 1596.17,446.167 1596.5,446.5C 1595.25,448.323 1594.59,450.323 1594.5,452.5C 1596.68,452.414 1598.68,451.747 1600.5,450.5C 1600.83,450.833 1601.17,451.167 1601.5,451.5C 1598.12,453.944 1594.62,456.278 1591,458.5C 1581.39,480.668 1571.39,502.668 1561,524.5C 1520.83,605.509 1480.16,686.175 1439,766.5C 1408.4,824.886 1375.9,882.052 1341.5,938C 1374.8,953.4 1407.3,970.233 1439,988.5C 1466.21,966.95 1493.71,945.784 1521.5,925C 1554.83,901.667 1588.17,878.333 1621.5,855C 1624.2,851.962 1627.2,849.295 1630.5,847C 1629.5,846 1628.5,845 1627.5,844C 1627.83,843.833 1628.17,843.667 1628.5,843.5C 1646.17,854.333 1663.83,865.167 1681.5,876C 1736.77,912.942 1791.77,950.275 1846.5,988C 1860.35,998.425 1874.01,1009.09 1887.5,1020C 1889.84,1021.4 1892.17,1021.9 1894.5,1021.5C 1868.86,1042.42 1841.53,1062.92 1812.5,1083C 1768.66,1112.09 1724.99,1141.42 1681.5,1171C 1663.83,1181.83 1646.17,1192.67 1628.5,1203.5C 1628.17,1203.33 1627.83,1203.17 1627.5,1203C 1628.5,1202 1629.5,1201 1630.5,1200C 1627.2,1197.7 1624.2,1195.04 1621.5,1192C 1567.62,1155.23 1514.62,1117.23 1462.5,1078C 1454.67,1071.5 1446.83,1065 1439,1058.5C 1407.3,1076.77 1374.8,1093.6 1341.5,1109C 1375.9,1164.95 1408.4,1222.11 1439,1280.5C 1480.16,1360.82 1520.83,1441.49 1561,1522.5C 1571.39,1544.33 1581.39,1566.33 1591,1588.5C 1594.62,1590.72 1598.12,1593.06 1601.5,1595.5C 1601.17,1595.83 1600.83,1596.17 1600.5,1596.5C 1598.68,1595.25 1596.68,1594.59 1594.5,1594.5C 1594.59,1596.68 1595.25,1598.68 1596.5,1600.5C 1596.17,1600.83 1595.83,1601.17 1595.5,1601.5C 1593.06,1598.12 1590.72,1594.62 1588.5,1591C 1566.33,1581.39 1544.33,1571.39 1522.5,1561C 1441.49,1520.83 1360.82,1480.16 1280.5,1439C 1222.11,1408.4 1164.95,1375.9 1109,1341.5C 1093.6,1374.8 1076.77,1407.3 1058.5,1439C 1080.05,1466.21 1101.22,1493.71 1122,1521.5C 1145.33,1554.83 1168.67,1588.17 1192,1621.5C 1195.04,1624.2 1197.7,1627.2 1200,1630.5C 1201,1629.5 1202,1628.5 1203,1627.5C 1203.17,1627.83 1203.33,1628.17 1203.5,1628.5C 1192.67,1646.17 1181.83,1663.83 1171,1681.5C 1134.06,1736.77 1096.72,1791.77 1059,1846.5C 1048.57,1860.35 1037.91,1874.01 1027,1887.5C 1025.6,1889.84 1025.1,1892.17 1025.5,1894.5C 1004.58,1868.86 984.081,1841.53 964,1812.5C 934.914,1768.66 905.581,1724.99 876,1681.5C 865.167,1663.83 854.333,1646.17 843.5,1628.5C 843.667,1628.17 843.833,1627.83 844,1627.5C 845,1628.5 846,1629.5 847,1630.5C 849.295,1627.2 851.962,1624.2 855,1621.5C 891.774,1567.62 929.774,1514.62 969,1462.5C 975.5,1454.67 982,1446.83 988.5,1439C 970.233,1407.3 953.4,1374.8 938,1341.5C 882.052,1375.9 824.886,1408.4 766.5,1439C 686.175,1480.16 605.509,1520.83 524.5,1561C 502.668,1571.39 480.668,1581.39 458.5,1591C 456.278,1594.62 453.944,1598.12 451.5,1601.5C 451.167,1601.17 450.833,1600.83 450.5,1600.5C 451.747,1598.68 452.414,1596.68 452.5,1594.5C 450.323,1594.59 448.323,1595.25 446.5,1596.5C 446.167,1596.17 445.833,1595.83 445.5,1595.5C 448.877,1593.06 452.377,1590.72 456,1588.5C 465.612,1566.33 475.612,1544.33 486,1522.5C 526.171,1441.49 566.837,1360.82 608,1280.5C 638.602,1222.11 671.102,1164.95 705.5,1109C 672.199,1093.6 639.699,1076.77 608,1058.5C 580.785,1080.05 553.285,1101.22 525.5,1122C 492.167,1145.33 458.833,1168.67 425.5,1192C 422.797,1195.04 419.797,1197.7 416.5,1200C 417.5,1201 418.5,1202 419.5,1203C 419.167,1203.17 418.833,1203.33 418.5,1203.5C 400.833,1192.67 383.167,1181.83 365.5,1171C 308.647,1133.41 252.314,1095.08 196.5,1056C 184.167,1046.33 171.833,1036.67 159.5,1027C 157.159,1025.6 154.826,1025.1 152.5,1025.5C 178.139,1004.58 205.473,984.081 234.5,964C 278.339,934.914 322.006,905.581 365.5,876C 383.167,865.167 400.833,854.333 418.5,843.5C 418.833,843.667 419.167,843.833 419.5,844C 418.5,845 417.5,846 416.5,847C 419.797,849.295 422.797,851.962 425.5,855C 479.382,891.774 532.382,929.774 584.5,969C 592.333,975.5 600.167,982 608,988.5C 639.699,970.233 672.199,953.4 705.5,938C 671.102,882.052 638.602,824.886 608,766.5C 566.837,686.175 526.171,605.509 486,524.5C 475.612,502.668 465.612,480.668 456,458.5C 452.377,456.278 448.877,453.944 445.5,451.5C 445.833,451.167 446.167,450.833 446.5,450.5C 448.323,451.747 450.323,452.414 452.5,452.5C 452.414,450.323 451.747,448.323 450.5,446.5C 450.833,446.167 451.167,445.833 451.5,445.5C 453.944,448.877 456.278,452.377 458.5,456C 480.668,465.612 502.668,475.612 524.5,486C 605.509,526.171 686.175,566.837 766.5,608C 824.886,638.602 882.052,671.102 938,705.5C 953.4,672.199 970.233,639.699 988.5,608C 966.95,580.785 945.784,553.285 925,525.5C 901.667,492.167 878.333,458.833 855,425.5C 851.962,422.797 849.295,419.797 847,416.5C 846,417.5 845,418.5 844,419.5C 843.833,419.167 843.667,418.833 843.5,418.5C 854.333,400.833 865.167,383.167 876,365.5C 913.591,308.647 951.925,252.314 991,196.5C 1001.95,183.556 1012.12,170.056 1021.5,156C 1021.01,154.862 1020.68,153.695 1020.5,152.5 Z M 1584.5,462.5 C 1548.05,528.506 1512.55,595.172 1478,662.5C 1431.6,754.291 1384.94,845.958 1338,937.5C 1325.63,932.272 1325.46,932.772 1337.5,939C 1336.74,940.441 1336.07,941.941 1335.5,943.5C 1337.27,944.627 1338.6,944.127 1339.5,942C 1340.5,941.333 1341.5,941.333 1342.5,942C 1376.58,960.042 1410.92,977.542 1445.5,994.5C 1445.83,994.167 1446.17,993.833 1446.5,993.5C 1444.97,992.139 1443.3,990.972 1441.5,990C 1453.78,984.527 1465.78,978.527 1477.5,972C 1522.2,941.974 1565.2,909.64 1606.5,875C 1615.38,866.292 1624.04,857.459 1632.5,848.5C 1716.15,908.819 1801.15,967.152 1887.5,1023.5C 1801.15,1079.85 1716.15,1138.18 1632.5,1198.5C 1613.23,1178.06 1592.57,1159.23 1570.5,1142C 1540.06,1118.89 1509.06,1096.56 1477.5,1075C 1465.78,1068.47 1453.78,1062.47 1441.5,1057C 1443.3,1056.03 1444.97,1054.86 1446.5,1053.5C 1446.17,1053.17 1445.83,1052.83 1445.5,1052.5C 1410.92,1069.46 1376.58,1086.96 1342.5,1105C 1340.08,1105.6 1338.24,1104.76 1337,1102.5C 1336.5,1102.83 1336,1103.17 1335.5,1103.5C 1336.07,1105.06 1336.74,1106.56 1337.5,1108C 1325.46,1114.23 1325.63,1114.73 1338,1109.5C 1404.84,1241.18 1472.17,1372.51 1540,1503.5C 1554.86,1530.55 1569.69,1557.55 1584.5,1584.5C 1518.49,1548.05 1451.83,1512.55 1384.5,1478C 1292.71,1431.6 1201.04,1384.94 1109.5,1338C 1114.73,1325.63 1114.23,1325.46 1108,1337.5C 1106.56,1336.74 1105.06,1336.07 1103.5,1335.5C 1102.37,1337.27 1102.87,1338.6 1105,1339.5C 1105.67,1340.5 1105.67,1341.5 1105,1342.5C 1086.96,1376.58 1069.46,1410.92 1052.5,1445.5C 1052.83,1445.83 1053.17,1446.17 1053.5,1446.5C 1054.86,1444.97 1056.03,1443.3 1057,1441.5C 1062.47,1453.78 1068.47,1465.78 1075,1477.5C 1105.03,1522.2 1137.36,1565.2 1172,1606.5C 1180.71,1615.38 1189.54,1624.04 1198.5,1632.5C 1138.18,1716.15 1079.85,1801.15 1023.5,1887.5C 967.152,1801.15 908.819,1716.15 848.5,1632.5C 868.937,1613.23 887.771,1592.57 905,1570.5C 928.108,1540.06 950.442,1509.06 972,1477.5C 978.527,1465.78 984.527,1453.78 990,1441.5C 990.972,1443.3 992.139,1444.97 993.5,1446.5C 993.833,1446.17 994.167,1445.83 994.5,1445.5C 977.542,1410.92 960.042,1376.58 942,1342.5C 941.403,1340.08 942.237,1338.24 944.5,1337C 944.167,1336.5 943.833,1336 943.5,1335.5C 941.941,1336.07 940.441,1336.74 939,1337.5C 932.772,1325.46 932.272,1325.63 937.5,1338C 805.823,1404.84 674.489,1472.17 543.5,1540C 516.446,1554.86 489.446,1569.69 462.5,1584.5C 498.949,1518.49 534.449,1451.83 569,1384.5C 615.396,1292.71 662.062,1201.04 709,1109.5C 721.371,1114.73 721.538,1114.23 709.5,1108C 710.26,1106.56 710.926,1105.06 711.5,1103.5C 709.731,1102.37 708.397,1102.87 707.5,1105C 706.5,1105.67 705.5,1105.67 704.5,1105C 670.416,1086.96 636.083,1069.46 601.5,1052.5C 601.167,1052.83 600.833,1053.17 600.5,1053.5C 602.028,1054.86 603.695,1056.03 605.5,1057C 593.221,1062.47 581.221,1068.47 569.5,1075C 524.801,1105.03 481.801,1137.36 440.5,1172C 431.625,1180.71 422.958,1189.54 414.5,1198.5C 330.85,1138.18 245.85,1079.85 159.5,1023.5C 245.85,967.152 330.85,908.819 414.5,848.5C 433.768,868.937 454.434,887.771 476.5,905C 506.942,928.108 537.942,950.442 569.5,972C 581.221,978.527 593.221,984.527 605.5,990C 603.695,990.972 602.028,992.139 600.5,993.5C 600.833,993.833 601.167,994.167 601.5,994.5C 636.083,977.542 670.416,960.042 704.5,942C 706.924,941.403 708.757,942.237 710,944.5C 710.5,944.167 711,943.833 711.5,943.5C 710.926,941.941 710.26,940.441 709.5,939C 721.538,932.772 721.371,932.272 709,937.5C 642.162,805.823 574.829,674.489 507,543.5C 492.142,516.446 477.309,489.446 462.5,462.5C 528.506,498.949 595.172,534.449 662.5,569C 754.291,615.396 845.958,662.062 937.5,709C 932.272,721.371 932.772,721.538 939,709.5C 940.441,710.26 941.941,710.926 943.5,711.5C 944.627,709.731 944.127,708.397 942,707.5C 941.333,706.5 941.333,705.5 942,704.5C 960.042,670.416 977.542,636.083 994.5,601.5C 994.167,601.167 993.833,600.833 993.5,600.5C 992.139,602.028 990.972,603.695 990,605.5C 984.527,593.221 978.527,581.221 972,569.5C 941.974,524.801 909.64,481.801 875,440.5C 866.292,431.625 857.459,422.958 848.5,414.5C 908.819,330.85 967.152,245.85 1023.5,159.5C 1079.85,245.85 1138.18,330.85 1198.5,414.5C 1178.06,433.768 1159.23,454.434 1142,476.5C 1118.89,506.942 1096.56,537.942 1075,569.5C 1068.47,581.221 1062.47,593.221 1057,605.5C 1056.03,603.695 1054.86,602.028 1053.5,600.5C 1053.17,600.833 1052.83,601.167 1052.5,601.5C 1069.46,636.083 1086.96,670.416 1105,704.5C 1105.6,706.924 1104.76,708.757 1102.5,710C 1102.83,710.5 1103.17,711 1103.5,711.5C 1105.06,710.926 1106.56,710.26 1108,709.5C 1114.23,721.538 1114.73,721.371 1109.5,709C 1241.18,642.162 1372.51,574.829 1503.5,507C 1530.55,492.142 1557.55,477.309 1584.5,462.5 Z"/></g>
<g><path style="opacity:0.979" fill="#fefffe" d="M 926.5,718.5 C 958.79,807.88 986.79,898.713 1010.5,991C 1010.17,991.167 1009.83,991.333 1009.5,991.5C 1003.52,977.396 998.019,963.063 993,948.5C 974.323,892.138 956.657,835.471 940,778.5C 934.666,758.662 930.166,738.662 926.5,718.5 Z"/></g>
<g><path style="opacity:0.979" fill="#fefffe" d="M 1119.5,718.5 C 1120.62,720.288 1120.79,722.288 1120,724.5C 1113.07,756.546 1104.74,788.212 1095,819.5C 1081.74,862.623 1068.07,905.623 1054,948.5C 1048.98,963.063 1043.48,977.396 1037.5,991.5C 1044.03,960.062 1052.2,928.729 1062,897.5C 1079.67,837.326 1098.84,777.659 1119.5,718.5 Z"/></g>
<g><path style="opacity:0.979" fill="#fefffe" d="M 718.5,927.5 C 720.288,926.378 722.288,926.211 724.5,927C 756.546,933.928 788.212,942.261 819.5,952C 862.623,965.263 905.623,978.93 948.5,993C 963.063,998.019 977.396,1003.52 991.5,1009.5C 960.062,1002.97 928.729,994.804 897.5,985C 837.326,967.331 777.659,948.164 718.5,927.5 Z"/></g>
<g><path style="opacity:0.979" fill="#fefffe" d="M 1322.5,926.5 C 1324.53,926.338 1326.53,926.505 1328.5,927C 1238.91,958.862 1148.08,986.695 1056,1010.5C 1055.83,1010.17 1055.67,1009.83 1055.5,1009.5C 1069.6,1003.52 1083.94,998.019 1098.5,993C 1154.86,974.323 1211.53,956.657 1268.5,940C 1286.63,935.468 1304.63,930.968 1322.5,926.5 Z"/></g>
<g><path style="opacity:0.979" fill="#fefffe" d="M 990.5,1036.5 C 991.692,1037.57 991.359,1038.4 989.5,1039C 910.854,1067.22 831.187,1092.22 750.5,1114C 739.917,1116.78 729.251,1118.78 718.5,1120C 808.036,1088.21 898.702,1060.37 990.5,1036.5 Z"/></g>
<g><path style="opacity:0.979" fill="#fefffe" d="M 1055.5,1036.5 C 1147.77,1060.2 1238.77,1088.03 1328.5,1120C 1294.32,1114.04 1260.65,1105.7 1227.5,1095C 1170.4,1077.56 1113.74,1058.89 1057.5,1039C 1056.24,1038.58 1055.58,1037.75 1055.5,1036.5 Z"/></g>
<g><path style="opacity:0.979" fill="#fefffe" d="M 1008.5,1055.5 C 1009.24,1055.37 1009.91,1055.54 1010.5,1056C 986.695,1148.08 958.862,1238.91 927,1328.5C 931.584,1301.16 937.917,1274.16 946,1247.5C 965.343,1182.97 986.176,1118.97 1008.5,1055.5 Z"/></g>
<g><path style="opacity:0.979" fill="#fefffe" d="M 1036.5,1056.5 C 1037.57,1055.31 1038.4,1055.64 1039,1057.5C 1067.22,1136.15 1092.22,1215.81 1114,1296.5C 1116.78,1307.08 1118.78,1317.75 1120,1328.5C 1088.21,1238.96 1060.37,1148.3 1036.5,1056.5 Z"/></g>
</svg>
