<?xml version="1.0" encoding="UTF-8"?>
<!DOCTYPE svg PUBLIC "-//W3C//DTD SVG 1.1//EN" "http://www.w3.org/Graphics/SVG/1.1/DTD/svg11.dtd">
<svg xmlns="http://www.w3.org/2000/svg" version="1.1" width="2048px" height="2048px" style="shape-rendering:geometricPrecision; text-rendering:geometricPrecision; image-rendering:optimizeQuality; fill-rule:evenodd; clip-rule:evenodd" xmlns:xlink="http://www.w3.org/1999/xlink">
<g><path style="opacity:0.979" fill="#fefffe" d="M 966.5,198.5 C 985.831,225.182 1004.83,252.182 1023.5,279.5C 1042.14,252.362 1060.97,225.362 1080,198.5C 1079.97,200.598 1079.3,202.598 1078,204.5C 1061.54,231.918 1044.71,259.085 1027.5,286C 1088.33,376.833 1149.17,467.667 1210,558.5C 1238.17,605.165 1264,653.165 1287.5,702.5C 1308.31,696.799 1328.98,690.799 1349.5,684.5C 1366.21,595.84 1392.38,509.84 1428,426.5C 1432.88,416.804 1438.72,407.804 1445.5,399.5C 1445.83,399.833 1446.17,400.167 1446.5,400.5C 1445.57,401.768 1445.41,403.101 1446,404.5C 1447.05,403.483 1448.22,403.316 1449.5,404C 1420.66,483.171 1392.49,563.005 1365,643.5C 1363.55,647.814 1362.55,652.147 1362,656.5C 1364.17,652.167 1366.33,647.833 1368.5,643.5C 1369.32,642.614 1370.32,642.281 1371.5,642.5C 1369.39,655.482 1367.39,668.482 1365.5,681.5C 1378.52,679.608 1391.52,677.608 1404.5,675.5C 1404.72,676.675 1404.39,677.675 1403.5,678.5C 1399.17,680.667 1394.83,682.833 1390.5,685C 1394.85,684.446 1399.19,683.446 1403.5,682C 1484,654.509 1563.83,626.342 1643,597.5C 1643.68,598.784 1643.52,599.951 1642.5,601C 1643.9,601.595 1645.23,601.428 1646.5,600.5C 1647.52,601.002 1647.69,601.668 1647,602.5C 1639.59,607.458 1632.09,612.291 1624.5,617C 1540.01,653.778 1452.68,680.611 1362.5,697.5C 1355.88,718.319 1350.05,739.319 1345,760.5C 1394.44,783.298 1442.27,808.798 1488.5,837C 1579.33,897.833 1670.17,958.667 1761,1019.5C 1786.42,1003.54 1811.92,987.708 1837.5,972C 1840.89,969.466 1844.56,967.799 1848.5,967C 1821.64,986.028 1794.64,1004.86 1767.5,1023.5C 1794.64,1042.14 1821.64,1060.97 1848.5,1080C 1846.4,1079.97 1844.4,1079.3 1842.5,1078C 1815.08,1061.54 1787.92,1044.71 1761,1027.5C 1670.17,1088.33 1579.33,1149.17 1488.5,1210C 1441.84,1238.17 1393.84,1264 1344.5,1287.5C 1350.2,1308.31 1356.2,1328.98 1362.5,1349.5C 1451.16,1366.21 1537.16,1392.38 1620.5,1428C 1630.2,1432.88 1639.2,1438.72 1647.5,1445.5C 1647.17,1445.83 1646.83,1446.17 1646.5,1446.5C 1645.23,1445.57 1643.9,1445.41 1642.5,1446C 1643.52,1447.05 1643.68,1448.22 1643,1449.5C 1563.83,1420.66 1484,1392.49 1403.5,1365C 1399.19,1363.55 1394.85,1362.55 1390.5,1362C 1394.83,1364.17 1399.17,1366.33 1403.5,1368.5C 1404.39,1369.32 1404.72,1370.32 1404.5,1371.5C 1391.52,1369.39 1378.52,1367.39 1365.5,1365.5C 1367.39,1378.52 1369.39,1391.52 1371.5,1404.5C 1370.32,1404.72 1369.32,1404.39 1368.5,1403.5C 1366.33,1399.17 1364.17,1394.83 1362,1390.5C 1362.55,1394.85 1363.55,1399.19 1365,1403.5C 1392.49,1484 1420.66,1563.83 1449.5,1643C 1448.22,1643.68 1447.05,1643.52 1446,1642.5C 1445.41,1643.9 1445.57,1645.23 1446.5,1646.5C 1446,1647.52 1445.33,1647.69 1444.5,1647C 1439.54,1639.59 1434.71,1632.09 1430,1624.5C 1393.22,1540.01 1366.39,1452.68 1349.5,1362.5C 1328.68,1355.88 1307.68,1350.05 1286.5,1345C 1263.7,1394.44 1238.2,1442.27 1210,1488.5C 1149.17,1579.33 1088.33,1670.17 1027.5,1761C 1043.46,1786.42 1059.29,1811.92 1075,1837.5C 1077.53,1840.89 1079.2,1844.56 1080,1848.5C 1060.97,1821.64 1042.14,1794.64 1023.5,1767.5C 1004.86,1794.64 986.028,1821.64 967,1848.5C 967.032,1846.4 967.699,1844.4 969,1842.5C 985.457,1815.08 1002.29,1787.92 1019.5,1761C 958.667,1670.17 897.833,1579.33 837,1488.5C 808.832,1441.84 782.999,1393.84 759.5,1344.5C 738.686,1350.2 718.02,1356.2 697.5,1362.5C 680.786,1451.16 654.619,1537.16 619,1620.5C 614.117,1630.2 608.284,1639.2 601.5,1647.5C 601.167,1647.17 600.833,1646.83 600.5,1646.5C 601.428,1645.23 601.595,1643.9 601,1642.5C 599.951,1643.52 598.784,1643.68 597.5,1643C 626.342,1563.83 654.509,1484 682,1403.5C 683.446,1399.19 684.446,1394.85 685,1390.5C 682.833,1394.83 680.667,1399.17 678.5,1403.5C 677.675,1404.39 676.675,1404.72 675.5,1404.5C 677.608,1391.52 679.608,1378.52 681.5,1365.5C 668.482,1367.39 655.482,1369.39 642.5,1371.5C 642.281,1370.32 642.614,1369.32 643.5,1368.5C 647.833,1366.33 652.167,1364.17 656.5,1362C 652.147,1362.55 647.814,1363.55 643.5,1365C 563.005,1392.49 483.171,1420.66 404,1449.5C 403.316,1448.22 403.483,1447.05 404.5,1446C 403.101,1445.41 401.768,1445.57 400.5,1446.5C 399.479,1446 399.312,1445.33 400,1444.5C 407.415,1439.54 414.915,1434.71 422.5,1430C 506.988,1393.22 594.321,1366.39 684.5,1349.5C 691.12,1328.68 696.954,1307.68 702,1286.5C 652.563,1263.7 604.73,1238.2 558.5,1210C 467.667,1149.17 376.833,1088.33 286,1027.5C 260.584,1043.46 235.084,1059.29 209.5,1075C 206.107,1077.53 202.441,1079.2 198.5,1080C 225.362,1060.97 252.362,1042.14 279.5,1023.5C 252.362,1004.86 225.362,986.028 198.5,967C 200.598,967.032 202.598,967.699 204.5,969C 231.918,985.457 259.085,1002.29 286,1019.5C 376.833,958.667 467.667,897.833 558.5,837C 605.165,808.832 653.165,782.999 702.5,759.5C 696.799,738.686 690.799,718.02 684.5,697.5C 595.84,680.786 509.84,654.619 426.5,619C 416.804,614.117 407.804,608.284 399.5,601.5C 399.833,601.167 400.167,600.833 400.5,600.5C 401.768,601.428 403.101,601.595 404.5,601C 403.483,599.951 403.316,598.784 404,597.5C 483.171,626.342 563.005,654.509 643.5,682C 647.814,683.446 652.147,684.446 656.5,685C 652.167,682.833 647.833,680.667 643.5,678.5C 642.614,677.675 642.281,676.675 642.5,675.5C 655.482,677.608 668.482,679.608 681.5,681.5C 679.608,668.482 677.608,655.482 675.5,642.5C 676.675,642.281 677.675,642.614 678.5,643.5C 680.667,647.833 682.833,652.167 685,656.5C 684.446,652.147 683.446,647.814 682,643.5C 654.509,563.005 626.342,483.171 597.5,404C 598.784,403.316 599.951,403.483 601,404.5C 601.595,403.101 601.428,401.768 600.5,400.5C 601.002,399.479 601.668,399.312 602.5,400C 607.458,407.415 612.291,414.915 617,422.5C 653.778,506.988 680.611,594.321 697.5,684.5C 718.319,691.12 739.319,696.954 760.5,702C 783.298,652.563 808.798,604.73 837,558.5C 897.833,467.667 958.667,376.833 1019.5,286C 1001.18,257.193 983.516,228.027 966.5,198.5 Z M 1022.5,293.5 C 1024.78,294.957 1026.62,296.957 1028,299.5C 1062.75,354.014 1098.25,408.014 1134.5,461.5C 1096.03,511.102 1059.03,561.769 1023.5,613.5C 987.967,561.769 950.967,511.102 912.5,461.5C 950.182,406.127 986.849,350.127 1022.5,293.5 Z M 879.5,749.5 C 876.61,746.447 873.276,743.947 869.5,742C 835.874,726.568 801.207,713.901 765.5,704C 765.043,703.586 764.709,703.086 764.5,702.5C 790.887,650.037 820.054,599.371 852,550.5C 871.667,521.5 891.333,492.5 911,463.5C 944.201,518.353 979.368,571.853 1016.5,624C 988.139,662.544 961.639,702.377 937,743.5C 929.035,758.959 920.868,774.292 912.5,789.5C 901.346,773.871 890.179,758.204 879,742.5C 878.5,743 878,743.5 877.5,744C 878.861,745.584 879.528,747.418 879.5,749.5 Z M 1167.5,749.5 C 1167.47,747.418 1168.14,745.584 1169.5,744C 1168.25,742.176 1167.08,742.343 1166,744.5C 1155.66,759.662 1145.16,774.662 1134.5,789.5C 1120.76,763.016 1106.26,737.016 1091,711.5C 1071.22,682.058 1051.06,652.891 1030.5,624C 1067.63,571.853 1102.8,518.353 1136,463.5C 1165.74,506.651 1194.74,550.318 1223,594.5C 1244.1,629.697 1263.94,665.697 1282.5,702.5C 1282.29,703.086 1281.96,703.586 1281.5,704C 1245.79,713.901 1211.13,726.568 1177.5,742C 1173.72,743.947 1170.39,746.447 1167.5,749.5 Z M 1022.5,635.5 C 1023.5,635.414 1024.33,635.748 1025,636.5C 1046.28,667.444 1067.94,698.111 1090,728.5C 1104.72,750.095 1118.55,772.261 1131.5,795C 1096.11,856.214 1060.11,917.048 1023.5,977.5C 986.886,917.048 950.886,856.214 915.5,795C 928.451,772.261 942.284,750.095 957,728.5C 979.335,697.821 1001.17,666.821 1022.5,635.5 Z M 879.5,749.5 C 901.06,795.285 924.226,840.285 949,884.5C 970.789,921.915 992.956,959.081 1015.5,996C 1013.48,1000.4 1011.64,1004.9 1010,1009.5C 1005.33,1011.5 1000.67,1013.5 996,1015.5C 937.392,979.105 877.559,944.605 816.5,912C 794.32,900.575 771.987,889.742 749.5,879.5C 750.117,879.389 750.617,879.056 751,878.5C 747.807,853.203 742.807,828.203 736,803.5C 726.402,770.539 715.902,737.872 704.5,705.5C 704.833,705.167 705.167,704.833 705.5,704.5C 759.209,724.57 814.209,740.07 870.5,751C 873.167,751.667 875.833,751.667 878.5,751C 879.056,750.617 879.389,750.117 879.5,749.5 Z M 1297.5,879.5 C 1251.72,901.06 1206.72,924.226 1162.5,949C 1125.09,970.789 1087.92,992.956 1051,1015.5C 1046.6,1013.48 1042.1,1011.64 1037.5,1010C 1035.5,1005.33 1033.5,1000.67 1031.5,996C 1067.9,937.392 1102.4,877.559 1135,816.5C 1146.42,794.32 1157.26,771.987 1167.5,749.5C 1167.61,750.117 1167.94,750.617 1168.5,751C 1193.8,747.807 1218.8,742.807 1243.5,736C 1276.46,726.402 1309.13,715.902 1341.5,704.5C 1341.83,704.833 1342.17,705.167 1342.5,705.5C 1322.43,759.209 1306.93,814.209 1296,870.5C 1295.33,873.167 1295.33,875.833 1296,878.5C 1296.38,879.056 1296.88,879.389 1297.5,879.5 Z M 749.5,879.5 C 747.418,879.528 745.584,878.861 744,877.5C 742.176,878.749 742.343,879.915 744.5,881C 759.662,891.338 774.662,901.838 789.5,912.5C 763.016,926.239 737.016,940.739 711.5,956C 682.058,975.777 652.891,995.943 624,1016.5C 571.853,979.368 518.353,944.201 463.5,911C 506.651,881.255 550.318,852.255 594.5,824C 629.697,802.898 665.697,783.064 702.5,764.5C 703.086,764.709 703.586,765.043 704,765.5C 713.901,801.207 726.568,835.874 742,869.5C 743.947,873.276 746.447,876.61 749.5,879.5 Z M 1297.5,879.5 C 1300.55,876.61 1303.05,873.276 1305,869.5C 1320.43,835.874 1333.1,801.207 1343,765.5C 1343.41,765.043 1343.91,764.709 1344.5,764.5C 1396.96,790.887 1447.63,820.054 1496.5,852C 1525.5,871.667 1554.5,891.333 1583.5,911C 1528.65,944.201 1475.15,979.368 1423,1016.5C 1384.46,988.139 1344.62,961.639 1303.5,937C 1288.04,929.035 1272.71,920.868 1257.5,912.5C 1273.13,901.346 1288.8,890.179 1304.5,879C 1304,878.5 1303.5,878 1303,877.5C 1301.42,878.861 1299.58,879.528 1297.5,879.5 Z M 460.5,912.5 C 482.604,928.759 504.604,945.259 526.5,962C 555.639,982.306 584.639,1002.81 613.5,1023.5C 561.769,1059.03 511.102,1096.03 461.5,1134.5C 405.843,1097 349.843,1060 293.5,1023.5C 349.748,987.221 405.414,950.221 460.5,912.5 Z M 1584.5,912.5 C 1640.61,949.728 1696.94,986.728 1753.5,1023.5C 1697.16,1060 1641.16,1097 1585.5,1134.5C 1535.9,1096.03 1485.23,1059.03 1433.5,1023.5C 1467.36,999.139 1501.36,974.972 1535.5,951C 1552.27,938.629 1568.6,925.796 1584.5,912.5 Z M 793.5,915.5 C 794.552,915.351 795.552,915.517 796.5,916C 856.964,951.634 917.297,987.468 977.5,1023.5C 917.048,1060.11 856.214,1096.11 795,1131.5C 772.261,1118.55 750.095,1104.72 728.5,1090C 697.462,1067.82 666.462,1045.65 635.5,1023.5C 686.807,985.513 739.474,949.513 793.5,915.5 Z M 1250.5,915.5 C 1273.9,928.038 1296.57,941.871 1318.5,957C 1349.54,979.179 1380.54,1001.35 1411.5,1023.5C 1380.54,1045.65 1349.54,1067.82 1318.5,1090C 1296.91,1104.72 1274.74,1118.55 1252,1131.5C 1190.79,1096.11 1129.95,1060.11 1069.5,1023.5C 1129.87,987.438 1190.21,951.438 1250.5,915.5 Z M 1021.5,1017.5 C 1027.33,1017.16 1029.83,1019.83 1029,1025.5C 1025.33,1030.83 1021.67,1030.83 1018,1025.5C 1017.28,1021.95 1018.45,1019.28 1021.5,1017.5 Z M 749.5,1167.5 C 746.447,1170.39 743.947,1173.72 742,1177.5C 726.568,1211.13 713.901,1245.79 704,1281.5C 703.586,1281.96 703.086,1282.29 702.5,1282.5C 650.037,1256.11 599.371,1226.95 550.5,1195C 521.5,1175.33 492.5,1155.67 463.5,1136C 518.353,1102.8 571.853,1067.63 624,1030.5C 662.544,1058.86 702.377,1085.36 743.5,1110C 758.959,1117.97 774.292,1126.13 789.5,1134.5C 773.871,1145.65 758.204,1156.82 742.5,1168C 743,1168.5 743.5,1169 744,1169.5C 745.584,1168.14 747.418,1167.47 749.5,1167.5 Z M 1297.5,1167.5 C 1299.58,1167.47 1301.42,1168.14 1303,1169.5C 1304.82,1168.25 1304.66,1167.08 1302.5,1166C 1287.34,1155.66 1272.34,1145.16 1257.5,1134.5C 1283.98,1120.76 1309.98,1106.26 1335.5,1091C 1364.94,1071.22 1394.11,1051.06 1423,1030.5C 1475.15,1067.63 1528.65,1102.8 1583.5,1136C 1540.35,1165.74 1496.68,1194.74 1452.5,1223C 1417.3,1244.1 1381.3,1263.94 1344.5,1282.5C 1343.91,1282.29 1343.41,1281.96 1343,1281.5C 1333.1,1245.79 1320.43,1211.13 1305,1177.5C 1303.05,1173.72 1300.55,1170.39 1297.5,1167.5 Z M 879.5,1297.5 C 879.389,1296.88 879.056,1296.38 878.5,1296C 853.203,1299.19 828.203,1304.19 803.5,1311C 770.539,1320.6 737.872,1331.1 705.5,1342.5C 705.167,1342.17 704.833,1341.83 704.5,1341.5C 724.57,1287.79 740.07,1232.79 751,1176.5C 751.667,1173.83 751.667,1171.17 751,1168.5C 750.617,1167.94 750.117,1167.61 749.5,1167.5C 795.285,1145.94 840.285,1122.77 884.5,1098C 921.915,1076.21 959.081,1054.04 996,1031.5C 1000.4,1033.52 1004.9,1035.36 1009.5,1037C 1011.5,1041.67 1013.5,1046.33 1015.5,1051C 979.105,1109.61 944.605,1169.44 912,1230.5C 900.575,1252.68 889.742,1275.01 879.5,1297.5 Z M 1297.5,1167.5 C 1296.88,1167.61 1296.38,1167.94 1296,1168.5C 1299.19,1193.8 1304.19,1218.8 1311,1243.5C 1320.6,1276.46 1331.1,1309.13 1342.5,1341.5C 1342.17,1341.83 1341.83,1342.17 1341.5,1342.5C 1287.79,1322.43 1232.79,1306.93 1176.5,1296C 1173.83,1295.33 1171.17,1295.33 1168.5,1296C 1167.94,1296.38 1167.61,1296.88 1167.5,1297.5C 1145.94,1251.72 1122.77,1206.72 1098,1162.5C 1076.21,1125.09 1054.04,1087.92 1031.5,1051C 1033.52,1046.6 1035.36,1042.1 1037,1037.5C 1041.67,1035.5 1046.33,1033.5 1051,1031.5C 1109.61,1067.9 1169.44,1102.4 1230.5,1135C 1252.68,1146.42 1275.01,1157.26 1297.5,1167.5 Z M 1022.5,1069.5 C 1059.72,1129.61 1096.05,1190.44 1131.5,1252C 1118.55,1274.74 1104.72,1296.91 1090,1318.5C 1067.82,1349.54 1045.65,1380.54 1023.5,1411.5C 1001.35,1380.54 979.179,1349.54 957,1318.5C 942.284,1296.91 928.451,1274.74 915.5,1252C 943.779,1202.6 972.946,1153.77 1003,1105.5C 1009.78,1093.61 1016.28,1081.61 1022.5,1069.5 Z M 879.5,1297.5 C 879.528,1299.58 878.861,1301.42 877.5,1303C 878.749,1304.82 879.915,1304.66 881,1302.5C 891.338,1287.34 901.838,1272.34 912.5,1257.5C 926.239,1283.98 940.739,1309.98 956,1335.5C 975.777,1364.94 995.943,1394.11 1016.5,1423C 979.368,1475.15 944.201,1528.65 911,1583.5C 881.255,1540.35 852.255,1496.68 824,1452.5C 802.898,1417.3 783.064,1381.3 764.5,1344.5C 764.709,1343.91 765.043,1343.41 765.5,1343C 801.207,1333.1 835.874,1320.43 869.5,1305C 873.276,1303.05 876.61,1300.55 879.5,1297.5 Z M 1167.5,1297.5 C 1170.39,1300.55 1173.72,1303.05 1177.5,1305C 1211.13,1320.43 1245.79,1333.1 1281.5,1343C 1281.96,1343.41 1282.29,1343.91 1282.5,1344.5C 1256.11,1396.96 1226.95,1447.63 1195,1496.5C 1175.33,1525.5 1155.67,1554.5 1136,1583.5C 1102.8,1528.65 1067.63,1475.15 1030.5,1423C 1058.86,1384.46 1085.36,1344.62 1110,1303.5C 1117.97,1288.04 1126.13,1272.71 1134.5,1257.5C 1145.65,1273.13 1156.82,1288.8 1168,1304.5C 1168.5,1304 1169,1303.5 1169.5,1303C 1168.14,1301.42 1167.47,1299.58 1167.5,1297.5 Z M 1022.5,1433.5 C 1024.19,1434.47 1025.69,1435.81 1027,1437.5C 1061.12,1488.07 1096.95,1537.41 1134.5,1585.5C 1097,1641.16 1060,1697.16 1023.5,1753.5C 986.997,1697.16 949.997,1641.16 912.5,1585.5C 951.144,1536.19 987.811,1485.52 1022.5,1433.5 Z"/></g>
<g><path style="opacity:0.964" fill="#fefffe" d="M 273.5,255.5 C 274.79,256.058 275.623,257.058 276,258.5C 279.402,266.874 282.902,275.207 286.5,283.5C 334.017,301.618 381.684,319.452 429.5,337C 484.342,359.059 539.342,380.725 594.5,402C 564.397,392.298 534.397,381.965 504.5,371C 432.802,343.813 361.135,316.647 289.5,289.5C 328.237,390.206 365.904,491.373 402.5,593C 360.917,493.462 321.75,391.962 285,288.5C 283.307,286.396 281.14,284.896 278.5,284C 270.551,281.242 262.885,277.909 255.5,274C 264.162,276.479 272.828,279.312 281.5,282.5C 281.833,282.167 282.167,281.833 282.5,281.5C 279.486,272.812 276.486,264.146 273.5,255.5 Z"/></g>
<g><path style="opacity:0.964" fill="#fefffe" d="M 1772.5,255.5 C 1773.04,255.56 1773.38,255.893 1773.5,256.5C 1770.3,264.757 1767.3,273.09 1764.5,281.5C 1764.83,281.833 1765.17,282.167 1765.5,282.5C 1774.17,279.312 1782.84,276.479 1791.5,274C 1784.12,277.909 1776.45,281.242 1768.5,284C 1765.86,284.896 1763.69,286.396 1762,288.5C 1744.86,335.577 1727.53,382.577 1710,429.5C 1687.94,484.342 1666.27,539.342 1645,594.5C 1654.7,564.397 1665.04,534.397 1676,504.5C 1703.19,432.802 1730.35,361.135 1757.5,289.5C 1659.29,327.404 1560.63,364.237 1461.5,400C 1458.57,401.318 1455.57,401.985 1452.5,402C 1507.66,380.725 1562.66,359.059 1617.5,337C 1664.42,319.47 1711.42,302.137 1758.5,285C 1760.6,283.307 1762.1,281.14 1763,278.5C 1765.88,270.683 1769.05,263.017 1772.5,255.5 Z"/></g>
<g><path style="opacity:0.964" fill="#fefffe" d="M 401.5,1452.5 C 402.097,1452.74 402.43,1453.24 402.5,1454C 365.904,1555.63 328.237,1656.79 289.5,1757.5C 387.706,1719.6 486.372,1682.76 585.5,1647C 588.43,1645.68 591.43,1645.02 594.5,1645C 539.342,1666.27 484.342,1687.94 429.5,1710C 382.577,1727.53 335.577,1744.86 288.5,1762C 286.396,1763.69 284.896,1765.86 284,1768.5C 281.242,1776.45 277.909,1784.12 274,1791.5C 276.479,1782.84 279.312,1774.17 282.5,1765.5C 282.167,1765.17 281.833,1764.83 281.5,1764.5C 272.828,1767.69 264.162,1770.52 255.5,1773C 262.885,1769.09 270.551,1765.76 278.5,1763C 281.14,1762.1 283.307,1760.6 285,1758.5C 299.667,1718.5 314.333,1678.5 329,1638.5C 353.663,1576.67 377.83,1514.67 401.5,1452.5 Z"/></g>
<g><path style="opacity:0.964" fill="#fefffe" d="M 1644.5,1452.5 C 1666.21,1507.44 1688.04,1562.44 1710,1617.5C 1727.53,1664.42 1744.86,1711.42 1762,1758.5C 1763.69,1760.6 1765.86,1762.1 1768.5,1763C 1776.45,1765.76 1784.12,1769.09 1791.5,1773C 1782.84,1770.52 1774.17,1767.69 1765.5,1764.5C 1765.17,1764.83 1764.83,1765.17 1764.5,1765.5C 1767.69,1774.17 1770.52,1782.84 1773,1791.5C 1769.09,1784.12 1765.76,1776.45 1763,1768.5C 1762.1,1765.86 1760.6,1763.69 1758.5,1762C 1711.42,1744.86 1664.42,1727.53 1617.5,1710C 1562.66,1687.94 1507.66,1666.27 1452.5,1645C 1482.6,1654.7 1512.6,1665.04 1542.5,1676C 1614.2,1703.19 1685.87,1730.35 1757.5,1757.5C 1730.35,1685.87 1703.19,1614.2 1676,1542.5C 1665.19,1512.58 1654.69,1482.58 1644.5,1452.5 Z"/></g>
</svg>
