<?xml version="1.0" encoding="UTF-8"?>
<!DOCTYPE svg PUBLIC "-//W3C//DTD SVG 1.1//EN" "http://www.w3.org/Graphics/SVG/1.1/DTD/svg11.dtd">
<svg xmlns="http://www.w3.org/2000/svg" version="1.1" width="2048px" height="2048px" style="shape-rendering:geometricPrecision; text-rendering:geometricPrecision; image-rendering:optimizeQuality; fill-rule:evenodd; clip-rule:evenodd" xmlns:xlink="http://www.w3.org/1999/xlink">
<g><path style="opacity:0.984" fill="#fefffe" d="M 1029.5,23.5 C 1031.22,24.278 1032.89,24.6114 1034.5,24.5C 1037.51,31.1882 1041.51,37.1882 1046.5,42.5C 1045.57,43.7678 1045.41,45.1011 1046,46.5C 1072.34,103.191 1093.34,161.858 1109,222.5C 1134.99,313.784 1154.32,406.45 1167,500.5C 1173.89,569.46 1171.56,638.127 1160,706.5C 1156.24,728.618 1152.24,750.618 1148,772.5C 1187.08,712.737 1230.75,656.404 1279,603.5C 1354.55,521.58 1437.05,448.08 1526.5,383C 1566.75,354.812 1609.08,329.812 1653.5,308C 1700.88,287.265 1749.22,269.432 1798.5,254.5C 1800.31,255.809 1801.98,257.309 1803.5,259C 1789.73,304.296 1773.57,348.796 1755,392.5C 1722.44,460.007 1683.1,523.007 1637,581.5C 1547.82,695.014 1445.32,794.514 1329.5,880C 1314.67,890.248 1299.67,900.248 1284.5,910C 1340.78,897.674 1397.78,890.008 1455.5,887C 1519.8,885.463 1583.46,891.129 1646.5,904C 1746.64,923.284 1844.97,949.284 1941.5,982C 1967.97,992.738 1994.31,1003.74 2020.5,1015C 2027.97,1020.86 2029.47,1028.03 2025,1036.5C 2022.02,1040.63 2018.52,1041.29 2014.5,1038.5C 1954.65,1066.51 1892.65,1088.67 1828.5,1105C 1756.62,1124.8 1683.95,1141.14 1610.5,1154C 1533.37,1167.44 1456.03,1168.77 1378.5,1158C 1346.91,1153.74 1315.58,1148.4 1284.5,1142C 1342.59,1179.4 1397.25,1221.4 1448.5,1268C 1534.48,1345.94 1610.98,1431.78 1678,1525.5C 1714.87,1578.56 1745.54,1635.22 1770,1695.5C 1782.5,1728.17 1793.67,1761.17 1803.5,1794.5C 1802.5,1794.5 1801.5,1794.5 1800.5,1794.5C 1800.5,1795.5 1800.5,1796.5 1800.5,1797.5C 1744.58,1781.47 1690.25,1760.97 1637.5,1736C 1581.27,1706.39 1528.27,1672.06 1478.5,1633C 1376.37,1553.2 1285.2,1462.37 1205,1360.5C 1185.22,1334.05 1166.22,1307.05 1148,1279.5C 1161.77,1343.38 1169.6,1408.05 1171.5,1473.5C 1170.08,1539.27 1162.25,1604.27 1148,1668.5C 1129.23,1761.57 1104.23,1852.9 1073,1942.5C 1063.94,1964.28 1054.61,1985.95 1045,2007.5C 1044.57,2009.67 1045.07,2011.67 1046.5,2013.5C 1044.47,2017.7 1041.3,2020.7 1037,2022.5C 1035.62,2024.38 1034.46,2026.38 1033.5,2028.5C 1032.28,2027.29 1031.11,2027.29 1030,2028.5C 1008.52,1987.85 990.519,1945.51 976,1901.5C 944.599,1802.89 920.265,1702.56 903,1600.5C 889.844,1521.27 889.177,1441.94 901,1362.5C 905.119,1334.25 910.119,1306.25 916,1278.5C 874.309,1342.49 827.309,1402.49 775,1458.5C 703.498,1534.7 625.998,1603.54 542.5,1665C 499.848,1695.25 454.848,1721.92 407.5,1745C 360.92,1765.22 313.42,1782.72 265,1797.5C 260.332,1795.21 259.665,1792.21 263,1788.5C 284.928,1704.33 319.595,1626 367,1553.5C 459.618,1416.53 571.451,1297.03 702.5,1195C 727.135,1176.35 752.468,1158.68 778.5,1142C 720.873,1154.5 662.539,1162.16 603.5,1165C 529.24,1165.72 455.907,1157.72 383.5,1141C 292.183,1122.23 202.516,1097.56 114.5,1067C 93.5996,1058.55 72.933,1049.55 52.5,1040C 50.1893,1040.16 47.856,1040.16 45.5,1040C 41.6197,1034.72 36.6197,1030.89 30.5,1028.5C 30.1667,1027.17 29.8333,1025.83 29.5,1024.5C 37.0143,1019.24 45.0143,1014.74 53.5,1011C 114.155,983.447 176.821,961.447 241.5,945C 313.03,925.367 385.364,909.367 458.5,897C 534.352,884.336 610.352,883.336 686.5,894C 717.774,898.19 748.774,903.523 779.5,910C 718.454,870.639 661.121,826.306 607.5,777C 525.2,701.403 451.7,618.57 387,528.5C 328.575,445.973 286.575,355.64 261,257.5C 263.346,253.818 265.846,253.652 268.5,257C 353.345,279.263 432.345,314.263 505.5,362C 653.197,462.361 780.03,584.528 886,728.5C 896.248,743.328 906.248,758.328 916,773.5C 904.05,718.516 896.384,662.849 893,606.5C 891.054,542.233 896.388,478.567 909,415.5C 928.663,311.845 955.663,210.179 990,110.5C 1001.57,80.7036 1014.73,51.7036 1029.5,23.5 Z M 1032.5,41.5 C 1033.56,44.587 1035.39,47.2537 1038,49.5C 1093.2,190.968 1131.2,336.968 1152,487.5C 1158.58,544.924 1157.91,602.258 1150,659.5C 1142.82,706.867 1132.49,753.533 1119,799.5C 1119.47,714.371 1096.8,636.038 1051,564.5C 1038.76,547.609 1026.09,547.276 1013,563.5C 967.368,634.672 944.368,712.672 944,797.5C 923.792,730.583 911.458,662.249 907,592.5C 905.538,531.58 910.872,471.246 923,411.5C 945.82,287.211 979.986,166.211 1025.5,48.5C 1030.69,49.1447 1033.03,46.8114 1032.5,41.5 Z M 928.5,826.5 C 879.723,763.872 826.389,705.039 768.5,650C 692.826,581.975 606.493,531.642 509.5,499C 508.465,500.507 508.632,502.007 510,503.5C 535.599,517.05 561.433,530.217 587.5,543C 675.86,587.992 754.027,646.825 822,719.5C 853.494,752.986 883.494,787.652 912,823.5C 923.726,840.228 935.059,857.228 946,874.5C 958.883,911.819 973.716,948.319 990.5,984C 952.358,967.388 913.692,951.722 874.5,937C 842.558,916.525 812.225,893.858 783.5,869C 746.152,836.658 710.319,802.491 676,766.5C 627.932,713.414 587.265,655.081 554,591.5C 539.411,563.322 525.078,534.989 511,506.5C 506.535,500.739 504.535,501.406 505,508.5C 532.493,583.509 569.826,652.842 617,716.5C 644.289,750.466 673.789,782.633 705.5,813C 745.624,851.978 787.624,888.478 831.5,922.5C 803.414,909.295 776.747,893.795 751.5,876C 604.365,773.866 481.198,648.366 382,499.5C 360.427,465.696 341.427,430.362 325,393.5C 306.715,350.951 289.049,308.284 272,265.5C 315.735,284.191 359.568,302.691 403.5,321C 452.577,343.357 498.91,370.024 542.5,401C 673.497,495.997 785.664,609.497 879,741.5C 890.916,759.664 902.583,777.997 914,796.5C 919.652,806.136 924.485,816.136 928.5,826.5 Z M 1231.5,922.5 C 1293.02,874.839 1350.86,822.505 1405,765.5C 1457.55,708.208 1499.88,643.875 1532,572.5C 1541.22,552.063 1549.89,531.397 1558,510.5C 1558.5,507.854 1558.66,505.187 1558.5,502.5C 1556.1,502.393 1554.26,503.393 1553,505.5C 1523.66,568.546 1489.99,628.879 1452,686.5C 1419.97,731.884 1383.47,773.717 1342.5,812C 1306.98,845.868 1269.98,877.868 1231.5,908C 1215.84,919.163 1199.84,929.83 1183.5,940C 1146.18,952.883 1109.68,967.716 1074,984.5C 1089.61,948.021 1104.28,911.021 1118,873.5C 1144.84,830.652 1175.5,790.652 1210,753.5C 1243.84,715.328 1280.01,679.495 1318.5,646C 1361.17,611.023 1406.83,580.357 1455.5,554C 1487.19,537.156 1519.19,520.822 1551.5,505C 1553.92,503.491 1554.92,501.325 1554.5,498.5C 1453.86,532.457 1364.86,585.291 1287.5,657C 1232.19,710.45 1181.19,767.283 1134.5,827.5C 1138.85,816.469 1144.02,805.802 1150,795.5C 1190.22,729.598 1236.22,667.931 1288,610.5C 1368.56,520.557 1458.73,442.391 1558.5,376C 1592.3,354.427 1627.64,335.427 1664.5,319C 1707.21,301.106 1749.88,283.439 1792.5,266C 1774.28,307.986 1756.45,350.153 1739,392.5C 1715.24,444.706 1686.91,494.039 1654,540.5C 1558.92,670.913 1445.42,782.413 1313.5,875C 1296.43,886.395 1279.1,897.395 1261.5,908C 1251.86,913.652 1241.86,918.485 1231.5,922.5 Z M 1031.5,560.5 C 1073.37,625.938 1097.87,697.605 1105,775.5C 1106.41,797.15 1106.74,818.817 1106,840.5C 1088.29,896.591 1065.62,950.591 1038,1002.5C 1035.83,1003.59 1033.83,1004.92 1032,1006.5C 1026.6,1004.1 1022.94,1000.1 1021,994.5C 995.368,944.272 974.035,892.272 957,838.5C 954.574,750.873 973.574,668.206 1014,590.5C 1020.11,580.604 1025.94,570.604 1031.5,560.5 Z M 556.5,900.5 C 640.351,900.753 722.351,913.253 802.5,938C 717.543,938.731 639.543,962.064 568.5,1008C 553.833,1020 553.833,1032 568.5,1044C 639.551,1089.9 717.551,1113.23 802.5,1114C 728.272,1136.31 652.439,1148.81 575,1151.5C 512.128,1149.9 449.962,1142.4 388.5,1129C 271.453,1106.2 157.786,1072.53 47.5,1028C 49.3506,1027.16 51.1839,1026.33 53,1025.5C 54.4055,1023.64 54.9055,1021.8 54.5,1020C 195.369,965.116 340.702,927.116 490.5,906C 512.599,903.474 534.599,901.64 556.5,900.5 Z M 1470.5,900.5 C 1531.09,900.192 1591.09,906.026 1650.5,918C 1774.13,940.988 1894.46,975.322 2011.5,1021C 2012.5,1024.67 2014.83,1027 2018.5,1028C 1868.72,1087.81 1713.72,1127.81 1553.5,1148C 1503.71,1153.09 1454.05,1152.09 1404.5,1145C 1356.06,1138.24 1308.39,1127.91 1261.5,1114C 1345.53,1112.98 1422.87,1089.98 1493.5,1045C 1509.45,1034.11 1510.45,1022.11 1496.5,1009C 1424.98,962.164 1346.31,938.498 1260.5,938C 1329.24,917.6 1399.24,905.1 1470.5,900.5 Z M 833.5,950.5 C 836.85,950.335 840.183,950.502 843.5,951C 900.743,968.792 955.743,991.792 1008.5,1020C 1009.59,1022.17 1010.92,1024.17 1012.5,1026C 1010.92,1027.83 1009.59,1029.83 1008.5,1032C 956.631,1059.6 902.631,1082.26 846.5,1100C 759.768,1103.45 677.768,1085.45 600.5,1046C 589.167,1039.33 577.833,1032.67 566.5,1026C 635.105,982.42 710.105,957.753 791.5,952C 805.673,951.831 819.673,951.331 833.5,950.5 Z M 1219.5,950.5 C 1304.73,948.809 1385.4,966.976 1461.5,1005C 1473.5,1012 1485.5,1019 1497.5,1026C 1427.57,1069.91 1351.23,1094.58 1268.5,1100C 1251.5,1100.67 1234.5,1100.67 1217.5,1100C 1162.52,1082.68 1109.52,1060.68 1058.5,1034C 1050.89,1030.31 1049.89,1025.48 1055.5,1019.5C 1089.06,1001.22 1123.73,985.385 1159.5,972C 1179.64,964.902 1199.64,957.735 1219.5,950.5 Z M 1030.5,1045.5 C 1035.5,1046.75 1039,1049.75 1041,1054.5C 1066.95,1105.02 1088.62,1157.35 1106,1211.5C 1109.29,1298.67 1090.96,1381.01 1051,1458.5C 1044.67,1469.17 1038.33,1479.83 1032,1490.5C 988.804,1423.25 964.138,1349.58 958,1269.5C 957.089,1250.84 956.756,1232.17 957,1213.5C 974.875,1156.7 997.708,1102.03 1025.5,1049.5C 1027.42,1048.39 1029.09,1047.05 1030.5,1045.5 Z M 928.5,1225.5 C 923.732,1237.7 917.899,1249.37 911,1260.5C 823.778,1398.08 715.611,1517.25 586.5,1618C 530.659,1662.11 470.326,1699.45 405.5,1730C 360.82,1748.45 316.32,1767.28 272,1786.5C 288.91,1744.46 306.244,1702.46 324,1660.5C 347.167,1608.47 375.167,1559.47 408,1513.5C 500.581,1385.59 611.081,1275.75 739.5,1184C 758.33,1171.42 777.33,1159.08 796.5,1147C 807.642,1140.1 819.309,1134.26 831.5,1129.5C 771.91,1176.57 715.41,1227.57 662,1282.5C 616.704,1330.74 579.037,1384.41 549,1443.5C 532.39,1476 517.723,1509.34 505,1543.5C 504.535,1550.59 506.535,1551.26 511,1545.5C 539.943,1483.59 572.943,1424.25 610,1367.5C 629.814,1339.68 651.147,1313.01 674,1287.5C 719.385,1239.77 767.551,1195.27 818.5,1154C 837.615,1139.55 857.282,1125.89 877.5,1113C 915.768,1099.14 953.435,1084.14 990.5,1068C 973.716,1103.68 958.883,1140.18 946,1177.5C 922.406,1216 895.406,1252 865,1285.5C 821.364,1335.8 773.864,1381.97 722.5,1424C 683.537,1453.83 642.204,1480.16 598.5,1503C 569.656,1517.92 540.656,1532.59 511.5,1547C 509.393,1548.26 508.393,1550.1 508.5,1552.5C 511.187,1552.66 513.854,1552.5 516.5,1552C 593.732,1523.57 664.732,1484.57 729.5,1435C 764.143,1406.36 796.977,1375.53 828,1342.5C 846.035,1323.47 863.702,1304.13 881,1284.5C 897.456,1265.22 913.29,1245.56 928.5,1225.5 Z M 1230.5,1128.5 C 1241.76,1133.46 1252.76,1138.96 1263.5,1145C 1343.51,1194.65 1417.51,1252.31 1485.5,1318C 1559.7,1388.81 1624.87,1466.65 1681,1551.5C 1702.91,1585.97 1722.24,1621.97 1739,1659.5C 1756.5,1701.17 1774,1742.83 1791.5,1784.5C 1789.53,1785.37 1787.53,1785.21 1785.5,1784C 1744.62,1766.39 1703.62,1749.06 1662.5,1732C 1598.4,1702.47 1538.73,1666.14 1483.5,1623C 1369.91,1534.75 1271.41,1432.25 1188,1315.5C 1174.25,1295.68 1161.25,1275.34 1149,1254.5C 1143.69,1245.54 1139.19,1236.21 1135.5,1226.5C 1185.29,1289.7 1239.62,1349.2 1298.5,1405C 1352.95,1453.71 1413.62,1493.38 1480.5,1524C 1502.27,1533.88 1524.27,1543.22 1546.5,1552C 1549.15,1552.5 1551.81,1552.66 1554.5,1552.5C 1553.86,1549.01 1551.86,1546.51 1548.5,1545C 1498.28,1521.56 1449.61,1495.56 1402.5,1467C 1363.22,1441.73 1326.22,1413.4 1291.5,1382C 1257.88,1349.71 1225.71,1316.21 1195,1281.5C 1166.25,1249.43 1140.59,1215.09 1118,1178.5C 1105.02,1141.07 1090.19,1104.41 1073.5,1068.5C 1090.7,1075.24 1108.03,1082.41 1125.5,1090C 1146.17,1098 1166.83,1106 1187.5,1114C 1223.82,1137.31 1258.15,1163.31 1290.5,1192C 1338.07,1233.57 1382.23,1278.4 1423,1326.5C 1455.4,1368.28 1484.07,1412.61 1509,1459.5C 1523.92,1488.34 1538.59,1517.34 1553,1546.5C 1554.24,1547.87 1555.74,1548.87 1557.5,1549.5C 1558.65,1546.89 1558.82,1544.23 1558,1541.5C 1530.15,1466.44 1492.48,1397.11 1445,1333.5C 1413.96,1295.45 1380.46,1259.62 1344.5,1226C 1308.1,1191.35 1270.1,1158.85 1230.5,1128.5 Z M 1118.5,1252.5 C 1142.18,1327.42 1154.85,1404.25 1156.5,1483C 1155.88,1542.14 1149.38,1600.64 1137,1658.5C 1113.65,1780.26 1078.98,1898.59 1033,2013.5C 1033.03,2009.03 1030.86,2006.7 1026.5,2006.5C 1016.17,1976.34 1005.34,1946.34 994,1916.5C 955.251,1800.42 927.585,1681.76 911,1560.5C 904.696,1508.12 905.029,1455.79 912,1403.5C 918.715,1352.98 929.381,1303.31 944,1254.5C 944.693,1326.61 961.693,1394.61 995,1458.5C 1001.08,1469 1007.42,1479.33 1014,1489.5C 1027.16,1504.67 1039.5,1504 1051,1487.5C 1096.96,1416 1119.46,1337.66 1118.5,1252.5 Z"/></g>
</svg>
