<?xml version="1.0" encoding="UTF-8"?>
<!DOCTYPE svg PUBLIC "-//W3C//DTD SVG 1.1//EN" "http://www.w3.org/Graphics/SVG/1.1/DTD/svg11.dtd">
<svg xmlns="http://www.w3.org/2000/svg" version="1.1" width="2048px" height="2048px" style="shape-rendering:geometricPrecision; text-rendering:geometricPrecision; image-rendering:optimizeQuality; fill-rule:evenodd; clip-rule:evenodd" xmlns:xlink="http://www.w3.org/1999/xlink">
<g><path style="opacity:0.989" fill="#fefffe" d="M 984.5,161.5 C 999.547,159.865 1012.55,164.198 1023.5,174.5C 1044.85,157.428 1066.51,157.261 1088.5,174C 1153.98,226.548 1198.48,293.381 1222,374.5C 1233.77,416.471 1241.44,459.138 1245,502.5C 1314.14,445.477 1389.31,397.311 1470.5,358C 1514.46,336.018 1559.8,317.352 1606.5,302C 1626.35,295.453 1646.69,291.286 1667.5,289.5C 1676.77,289.093 1685.11,291.593 1692.5,297C 1697.17,304.128 1698.67,311.961 1697,320.5C 1696.3,326.639 1694.97,332.639 1693,338.5C 1690.06,346.497 1687.22,354.497 1684.5,362.5C 1692.5,359.776 1700.5,356.943 1708.5,354C 1718.89,350.42 1729.56,349.087 1740.5,350C 1748.93,352.297 1754.09,357.797 1756,366.5C 1757.99,379.939 1757.32,393.272 1754,406.5C 1744.38,445.686 1731.38,483.686 1715,520.5C 1676.41,609.391 1628.41,692.391 1571,769.5C 1562.17,780.333 1553.33,791.167 1544.5,802C 1604.12,806.323 1661.78,819.323 1717.5,841C 1770.32,863.657 1816.49,895.824 1856,937.5C 1866.73,949.28 1875.73,962.28 1883,976.5C 1888.8,994.314 1885.3,1009.98 1872.5,1023.5C 1889.57,1044.85 1889.74,1066.51 1873,1088.5C 1820.45,1153.98 1753.62,1198.48 1672.5,1222C 1630.53,1233.77 1587.86,1241.44 1544.5,1245C 1602.44,1315.36 1651.27,1391.86 1691,1474.5C 1712.13,1517.21 1730.13,1561.21 1745,1606.5C 1751.55,1626.35 1755.71,1646.69 1757.5,1667.5C 1757.91,1676.77 1755.41,1685.11 1750,1692.5C 1742.87,1697.17 1735.04,1698.67 1726.5,1697C 1720.36,1696.3 1714.36,1694.97 1708.5,1693C 1700.5,1690.06 1692.5,1687.22 1684.5,1684.5C 1687.22,1692.5 1690.06,1700.5 1693,1708.5C 1696.58,1718.89 1697.91,1729.56 1697,1740.5C 1694.7,1748.93 1689.2,1754.09 1680.5,1756C 1667.06,1757.99 1653.73,1757.32 1640.5,1754C 1601.31,1744.38 1563.31,1731.38 1526.5,1715C 1437.61,1676.41 1354.61,1628.41 1277.5,1571C 1266.67,1562.17 1255.83,1553.33 1245,1544.5C 1240.68,1604.12 1227.68,1661.78 1206,1717.5C 1183.34,1770.32 1151.18,1816.49 1109.5,1856C 1097.72,1866.73 1084.72,1875.73 1070.5,1883C 1052.69,1888.8 1037.02,1885.3 1023.5,1872.5C 1002.15,1889.57 980.486,1889.74 958.5,1873C 893.022,1820.45 848.522,1753.62 825,1672.5C 813.228,1630.53 805.561,1587.86 802,1544.5C 731.642,1602.44 655.142,1651.27 572.5,1691C 529.787,1712.13 485.787,1730.13 440.5,1745C 420.647,1751.55 400.313,1755.71 379.5,1757.5C 370.227,1757.91 361.893,1755.41 354.5,1750C 349.826,1742.87 348.326,1735.04 350,1726.5C 350.702,1720.36 352.035,1714.36 354,1708.5C 356.943,1700.5 359.776,1692.5 362.5,1684.5C 354.497,1687.22 346.497,1690.06 338.5,1693C 328.107,1696.58 317.44,1697.91 306.5,1697C 298.073,1694.7 292.907,1689.2 291,1680.5C 289.01,1667.06 289.677,1653.73 293,1640.5C 302.617,1601.31 315.617,1563.31 332,1526.5C 370.6,1437.58 418.6,1354.58 476,1277.5C 484.833,1266.67 493.667,1255.83 502.5,1245C 442.885,1240.68 385.218,1227.68 329.5,1206C 276.678,1183.34 230.511,1151.18 191,1109.5C 180.273,1097.72 171.273,1084.72 164,1070.5C 158.205,1052.69 161.705,1037.02 174.5,1023.5C 157.428,1002.15 157.261,980.486 174,958.5C 226.548,893.022 293.381,848.522 374.5,825C 416.471,813.228 459.138,805.561 502.5,802C 445.477,732.857 397.311,657.691 358,576.5C 336.018,532.536 317.352,487.202 302,440.5C 295.453,420.647 291.286,400.313 289.5,379.5C 289.093,370.227 291.593,361.893 297,354.5C 304.128,349.826 311.961,348.326 320.5,350C 326.639,350.702 332.639,352.035 338.5,354C 346.497,356.943 354.497,359.776 362.5,362.5C 359.776,354.497 356.943,346.497 354,338.5C 350.42,328.107 349.087,317.44 350,306.5C 352.297,298.073 357.797,292.907 366.5,291C 379.939,289.01 393.272,289.677 406.5,293C 445.686,302.617 483.686,315.617 520.5,332C 609.423,370.6 692.423,418.6 769.5,476C 780.333,484.833 791.167,493.667 802,502.5C 806.248,446.595 817.915,392.262 837,339.5C 862.964,273.554 903.464,218.387 958.5,174C 966.608,168.444 975.275,164.278 984.5,161.5 Z M 988.5,178.5 C 997.946,178.058 1005.95,181.224 1012.5,188C 980.612,231.554 949.112,275.388 918,319.5C 886.753,363.3 860.087,409.966 838,459.5C 831.444,475.281 825.444,491.281 820,507.5C 822.586,451.486 833.586,397.152 853,344.5C 876.715,285.883 912.549,236.049 960.5,195C 969.009,187.967 978.342,182.467 988.5,178.5 Z M 1050.5,178.5 C 1060.97,178.896 1070.3,182.396 1078.5,189C 1142.82,241.058 1185.99,307.225 1208,387.5C 1218.86,426.816 1225.2,466.816 1227,507.5C 1210.28,457.738 1187.95,410.738 1160,366.5C 1149.92,350.662 1139.58,334.995 1129,319.5C 1097.89,275.388 1066.39,231.554 1034.5,188C 1039.15,183.516 1044.48,180.349 1050.5,178.5 Z M 1022.5,200.5 C 1024.19,201.475 1025.69,202.808 1027,204.5C 1055.75,245.676 1084.75,286.676 1114,327.5C 1153.12,381.717 1184.45,440.383 1208,503.5C 1210.5,511.667 1213,519.833 1215.5,528C 1112.98,623.895 1048.98,741.395 1023.5,880.5C 998.02,741.395 934.02,623.895 831.5,528C 845.738,480.358 865.572,435.192 891,392.5C 901.083,375.998 911.417,359.664 922,343.5C 955.745,295.936 989.245,248.269 1022.5,200.5 Z M 371.5,305.5 C 390.687,305.503 409.353,308.67 427.5,315C 491.657,336.243 553.323,363.243 612.5,396C 680.604,432.132 743.771,475.299 802,525.5C 802.07,544.097 802.904,562.597 804.5,581C 803.88,583.473 803.214,585.973 802.5,588.5C 740.007,534.718 670.674,491.218 594.5,458C 524.289,427.895 453.622,398.895 382.5,371C 374.566,354.87 368.399,338.036 364,320.5C 363.173,316.459 363.34,312.459 364.5,308.5C 366.885,307.339 369.219,306.339 371.5,305.5 Z M 1658.5,305.5 C 1665.57,305.161 1672.57,305.661 1679.5,307C 1682.53,308.41 1683.86,310.91 1683.5,314.5C 1679.87,334.262 1673.53,353.095 1664.5,371C 1593.38,398.895 1522.71,427.895 1452.5,458C 1376.33,491.218 1306.99,534.718 1244.5,588.5C 1243.79,585.973 1243.12,583.473 1242.5,581C 1244.1,562.597 1244.93,544.097 1245,525.5C 1297.39,480.213 1353.89,440.713 1414.5,407C 1469.81,375.679 1527.14,348.679 1586.5,326C 1610.11,317.269 1634.11,310.435 1658.5,305.5 Z M 308.5,363.5 C 316.737,363.047 324.737,364.214 332.5,367C 345.704,371.398 358.537,376.564 371,382.5C 398.895,453.622 427.895,524.289 458,594.5C 491.218,670.674 534.718,740.007 588.5,802.5C 585.973,803.214 583.473,803.88 581,804.5C 562.597,802.904 544.097,802.07 525.5,802C 472.782,740.438 427.616,673.605 390,601.5C 365.652,555.808 344.318,508.808 326,460.5C 319.525,442.409 313.858,424.076 309,405.5C 306.023,394.333 305.023,383 306,371.5C 306.561,368.721 307.394,366.054 308.5,363.5 Z M 1726.5,363.5 C 1730.55,363.176 1734.55,363.509 1738.5,364.5C 1740.88,369.378 1741.88,374.544 1741.5,380C 1740.96,391.374 1739.13,402.54 1736,413.5C 1723.34,456.805 1707.34,498.805 1688,539.5C 1648.03,625.512 1599.03,705.512 1541,779.5C 1534.87,787.295 1528.37,794.795 1521.5,802C 1502.9,802.07 1484.4,802.904 1466,804.5C 1463.53,803.88 1461.03,803.214 1458.5,802.5C 1512.28,740.007 1555.78,670.674 1589,594.5C 1619.11,524.289 1648.11,453.622 1676,382.5C 1692.34,374.668 1709.17,368.334 1726.5,363.5 Z M 954.5,954.5 C 907.443,919.119 858.109,886.952 806.5,858C 768.479,836.987 728.479,820.987 686.5,810C 662.134,804.573 637.468,801.906 612.5,802C 558.544,742.977 514.377,677.144 480,604.5C 447.264,533.725 417.431,462.058 390.5,389.5C 456.626,415.896 522.293,443.396 587.5,472C 666.576,507.754 738.076,554.587 802,612.5C 802.351,666.57 814.351,717.903 838,766.5C 863.138,817.472 891.804,866.138 924,912.5C 934.43,926.382 944.597,940.382 954.5,954.5 Z M 1092.5,954.5 C 1127.88,907.443 1160.05,858.109 1189,806.5C 1210.01,768.479 1226.01,728.479 1237,686.5C 1242.43,662.134 1245.09,637.468 1245,612.5C 1304.02,558.544 1369.86,514.377 1442.5,480C 1513.28,447.264 1584.94,417.431 1657.5,390.5C 1631.1,456.626 1603.6,522.293 1575,587.5C 1539.25,666.576 1492.41,738.076 1434.5,802C 1380.43,802.351 1329.1,814.351 1280.5,838C 1229.53,863.138 1180.86,891.804 1134.5,924C 1120.62,934.43 1106.62,944.597 1092.5,954.5 Z M 826.5,547.5 C 936.773,650.712 1000.27,777.712 1017,928.5C 981.267,804.625 917.267,698.292 825,609.5C 822.924,600.316 821.757,590.983 821.5,581.5C 822.3,570.034 823.967,558.7 826.5,547.5 Z M 1219.5,547.5 C 1226.01,567.043 1227.18,587.043 1223,607.5C 1142.25,686.344 1082.25,779.011 1043,885.5C 1038.26,899.713 1033.93,914.047 1030,928.5C 1041.16,820.683 1078.49,723.017 1142,635.5C 1165.81,604.515 1191.64,575.182 1219.5,547.5 Z M 829.5,640.5 C 898.345,713.302 950.512,796.969 986,891.5C 998.786,927.308 1007.79,963.975 1013,1001.5C 931.899,907.673 873.899,800.673 839,680.5C 835.513,667.221 832.347,653.888 829.5,640.5 Z M 1216.5,640.5 C 1211.23,670.209 1203.4,699.542 1193,728.5C 1160.3,818.261 1114.97,900.594 1057,975.5C 1049.8,984.542 1042.14,993.209 1034,1001.5C 1044.66,930.184 1067.33,862.851 1102,799.5C 1133.41,741.596 1171.58,688.596 1216.5,640.5 Z M 500.5,819.5 C 502.857,819.337 505.19,819.503 507.5,820C 465.29,834.273 424.957,852.606 386.5,875C 367.233,886.605 348.233,898.605 329.5,911C 282.069,944.465 234.902,978.299 188,1012.5C 176.612,1000.72 175.612,988.05 185,974.5C 205.833,945.667 230.667,920.833 259.5,900C 309.305,864.113 364.639,840.779 425.5,830C 450.471,825.218 475.471,821.718 500.5,819.5 Z M 1539.5,820.5 C 1599.04,822.843 1656.7,835.009 1712.5,857C 1764.7,880.182 1809.87,913.015 1848,955.5C 1855.58,964.312 1861.91,973.978 1867,984.5C 1869.94,995.413 1867.27,1004.75 1859,1012.5C 1812.1,978.299 1764.93,944.465 1717.5,911C 1669.27,877.378 1617.6,849.711 1562.5,828C 1554.98,824.994 1547.31,822.494 1539.5,820.5 Z M 572.5,821.5 C 585.019,821.095 597.352,822.262 609.5,825C 698.292,917.267 804.625,981.267 928.5,1017C 820.683,1005.84 723.017,968.511 635.5,905C 604.384,881.229 575.05,855.229 547.5,827C 555.919,824.952 564.252,823.119 572.5,821.5 Z M 1456.5,821.5 C 1471.11,821.157 1485.44,822.99 1499.5,827C 1397.64,934.521 1272.8,998.354 1125,1018.5C 1122.86,1017.87 1120.7,1017.37 1118.5,1017C 1242.37,981.267 1348.71,917.267 1437.5,825C 1443.9,823.581 1450.23,822.415 1456.5,821.5 Z M 640.5,830.5 C 670.209,835.765 699.542,843.599 728.5,854C 818.261,886.696 900.594,932.029 975.5,990C 984.542,997.197 993.209,1004.86 1001.5,1013C 930.184,1002.34 862.851,979.672 799.5,945C 741.596,913.589 688.596,875.423 640.5,830.5 Z M 1404.5,829.5 C 1405.24,829.369 1405.91,829.536 1406.5,830C 1333.51,898.549 1249.85,950.549 1155.5,986C 1119.69,998.786 1083.03,1007.79 1045.5,1013C 1053.79,1004.86 1062.46,997.197 1071.5,990C 1156.06,924.543 1249.73,875.543 1352.5,843C 1369.87,838.158 1387.21,833.658 1404.5,829.5 Z M 526.5,831.5 C 527.552,831.351 528.552,831.517 529.5,832C 624.637,934.765 741.637,998.598 880.5,1023.5C 741.395,1048.98 623.895,1112.98 528,1215.5C 474.871,1199.02 424.704,1176.19 377.5,1147C 317.801,1106.82 258.801,1065.65 200.5,1023.5C 242.833,993.333 285.167,963.167 327.5,933C 378.399,896.04 433.399,866.04 492.5,843C 503.968,839.233 515.301,835.4 526.5,831.5 Z M 1517.5,831.5 C 1565.77,845.303 1611.44,865.136 1654.5,891C 1676.68,904.252 1698.34,918.252 1719.5,933C 1761.83,963.167 1804.17,993.333 1846.5,1023.5C 1798.97,1057.53 1751.31,1091.36 1703.5,1125C 1662.47,1153.36 1618.8,1177.36 1572.5,1197C 1554.94,1203.96 1537.11,1210.13 1519,1215.5C 1423.11,1112.98 1305.61,1048.98 1166.5,1023.5C 1305.55,998.555 1422.55,934.555 1517.5,831.5 Z M 920.5,1028.5 C 923.166,1028.93 925.832,1029.43 928.5,1030C 804.625,1065.73 698.292,1129.73 609.5,1222C 588.687,1227.1 568.02,1226.44 547.5,1220C 649.111,1112.86 773.445,1049.02 920.5,1028.5 Z M 1123.5,1028.5 C 1271.92,1048.21 1397.25,1112.04 1499.5,1220C 1478.98,1226.44 1458.31,1227.1 1437.5,1222C 1348.71,1129.73 1242.37,1065.73 1118.5,1030C 1120.38,1029.8 1122.05,1029.3 1123.5,1028.5 Z M 998.5,1033.5 C 999.552,1033.35 1000.55,1033.52 1001.5,1034C 907.673,1115.1 800.673,1173.1 680.5,1208C 667.217,1211.66 653.884,1214.66 640.5,1217C 725.053,1136.69 823.72,1080.03 936.5,1047C 957.16,1041.83 977.826,1037.33 998.5,1033.5 Z M 1045.5,1034.5 C 1102.36,1042.39 1157.03,1058.56 1209.5,1083C 1282.27,1117.53 1347.94,1162.19 1406.5,1217C 1355.41,1206.64 1306.07,1190.64 1258.5,1169C 1180.72,1134.28 1109.72,1089.45 1045.5,1034.5 Z M 187.5,1034.5 C 231.343,1066.17 275.343,1097.67 319.5,1129C 363.3,1160.25 409.966,1186.91 459.5,1209C 475.281,1215.56 491.281,1221.56 507.5,1227C 447.819,1224.13 390.153,1211.8 334.5,1190C 280.034,1166.2 233.534,1131.7 195,1086.5C 187.991,1078.15 182.658,1068.82 179,1058.5C 178.156,1049.19 180.99,1041.19 187.5,1034.5 Z M 1858.5,1034.5 C 1870.35,1046.02 1871.52,1058.69 1862,1072.5C 1841.17,1101.33 1816.33,1126.17 1787.5,1147C 1731.11,1186.92 1668.45,1211.59 1599.5,1221C 1579.6,1224.32 1559.6,1226.32 1539.5,1227C 1589.26,1210.28 1636.26,1187.95 1680.5,1160C 1737.2,1121.99 1793.2,1082.99 1848.5,1043C 1852.02,1040.3 1855.36,1037.47 1858.5,1034.5 Z M 1012.5,1045.5 C 1004.61,1102.36 988.445,1157.03 964,1209.5C 929.474,1282.27 884.807,1347.94 830,1406.5C 840.363,1355.41 856.363,1306.07 878,1258.5C 912.72,1180.72 957.553,1109.72 1012.5,1045.5 Z M 1033.5,1045.5 C 1042.02,1053.53 1049.85,1062.19 1057,1071.5C 1125.46,1160.07 1175.79,1258.41 1208,1366.5C 1211.66,1379.78 1214.66,1393.12 1217,1406.5C 1136.69,1321.95 1080.03,1223.28 1047,1110.5C 1041.39,1089.05 1036.89,1067.38 1033.5,1045.5 Z M 954.5,1092.5 C 919.119,1139.56 886.952,1188.89 858,1240.5C 836.987,1278.52 820.987,1318.52 810,1360.5C 804.573,1384.87 801.906,1409.53 802,1434.5C 742.977,1488.46 677.144,1532.62 604.5,1567C 533.725,1599.74 462.058,1629.57 389.5,1656.5C 415.896,1590.37 443.396,1524.71 472,1459.5C 507.754,1380.42 554.587,1308.92 612.5,1245C 666.57,1244.65 717.903,1232.65 766.5,1209C 817.472,1183.86 866.138,1155.2 912.5,1123C 926.382,1112.57 940.382,1102.4 954.5,1092.5 Z M 1092.5,1092.5 C 1139.56,1127.88 1188.89,1160.05 1240.5,1189C 1278.52,1210.01 1318.52,1226.01 1360.5,1237C 1384.87,1242.43 1409.53,1245.09 1434.5,1245C 1488.46,1304.02 1532.62,1369.86 1567,1442.5C 1599.74,1513.28 1629.57,1584.94 1656.5,1657.5C 1590.37,1631.1 1524.71,1603.6 1459.5,1575C 1380.42,1539.25 1308.92,1492.41 1245,1434.5C 1244.65,1380.43 1232.65,1329.1 1209,1280.5C 1183.86,1229.53 1155.2,1180.86 1123,1134.5C 1112.57,1120.62 1102.4,1106.62 1092.5,1092.5 Z M 1016.5,1118.5 C 1017.34,1120.49 1018.01,1122.65 1018.5,1125C 998.354,1272.8 934.521,1397.64 827,1499.5C 820.977,1479.76 819.977,1459.76 824,1439.5C 907.975,1357.63 969.308,1260.96 1008,1149.5C 1011.31,1139.27 1014.14,1128.94 1016.5,1118.5 Z M 1029.5,1118.5 C 1065.63,1242.16 1129.8,1348.49 1222,1437.5C 1227.1,1458.31 1226.44,1478.98 1220,1499.5C 1110.26,1396.02 1046.76,1269.02 1029.5,1118.5 Z M 1022.5,1166.5 C 1030.61,1204.57 1041.11,1242.23 1054,1279.5C 1089.57,1371.85 1143.4,1451.69 1215.5,1519C 1201.26,1566.64 1181.43,1611.81 1156,1654.5C 1142.75,1676.68 1128.75,1698.34 1114,1719.5C 1083.83,1761.83 1053.67,1804.17 1023.5,1846.5C 993.333,1804.17 963.167,1761.83 933,1719.5C 893.884,1665.28 862.551,1606.62 839,1543.5C 836.5,1535.33 834,1527.17 831.5,1519C 903.597,1451.69 957.43,1371.85 993,1279.5C 1006.44,1242.75 1016.27,1205.09 1022.5,1166.5 Z M 580.5,1242.5 C 583.147,1243.07 585.813,1243.74 588.5,1244.5C 542.292,1297.86 503.792,1356.53 473,1420.5C 459.224,1449.17 446.224,1478.17 434,1507.5C 413,1559.83 392,1612.17 371,1664.5C 354.87,1672.43 338.036,1678.6 320.5,1683C 316.459,1683.83 312.459,1683.66 308.5,1682.5C 306.122,1677.62 305.122,1672.46 305.5,1667C 306.614,1650.76 309.78,1634.93 315,1619.5C 359.002,1490.78 422.669,1373.45 506,1267.5C 512.127,1259.7 518.627,1252.2 525.5,1245C 544.028,1244.94 562.362,1244.1 580.5,1242.5 Z M 1465.5,1242.5 C 1484.07,1244.09 1502.74,1244.92 1521.5,1245C 1574.22,1306.56 1619.38,1373.4 1657,1445.5C 1687.26,1501.28 1712.26,1559.28 1732,1619.5C 1738.5,1637.64 1741.5,1656.31 1741,1675.5C 1740.63,1678 1739.79,1680.33 1738.5,1682.5C 1730.29,1683.96 1722.29,1683.13 1714.5,1680C 1701.3,1675.6 1688.46,1670.44 1676,1664.5C 1655,1612.17 1634,1559.83 1613,1507.5C 1588.25,1445.33 1558.25,1386 1523,1329.5C 1503.44,1299.73 1481.94,1271.4 1458.5,1244.5C 1460.97,1243.83 1463.3,1243.17 1465.5,1242.5 Z M 801.5,1458.5 C 803.154,1460.56 804.154,1463.06 804.5,1466C 802.904,1484.4 802.07,1502.9 802,1521.5C 740.438,1574.22 673.605,1619.38 601.5,1657C 555.808,1681.35 508.808,1702.68 460.5,1721C 442.409,1727.47 424.076,1733.14 405.5,1738C 394.333,1740.98 383,1741.98 371.5,1741C 369,1740.63 366.667,1739.79 364.5,1738.5C 363.04,1730.29 363.873,1722.29 367,1714.5C 371.398,1701.3 376.564,1688.46 382.5,1676C 453.622,1648.11 524.289,1619.11 594.5,1589C 657.213,1561.5 715.547,1527.17 769.5,1486C 780.653,1477.34 791.32,1468.18 801.5,1458.5 Z M 1243.5,1458.5 C 1306.45,1512.02 1376.12,1555.52 1452.5,1589C 1522.71,1619.11 1593.38,1648.11 1664.5,1676C 1672.43,1692.13 1678.6,1708.96 1683,1726.5C 1683.83,1730.54 1683.66,1734.54 1682.5,1738.5C 1677.62,1740.88 1672.46,1741.88 1667,1741.5C 1658.39,1741.17 1649.89,1740.01 1641.5,1738C 1595.33,1725.28 1550.66,1708.61 1507.5,1688C 1421.49,1648.03 1341.49,1599.03 1267.5,1541C 1259.7,1534.87 1252.2,1528.37 1245,1521.5C 1244.93,1502.9 1244.1,1484.4 1242.5,1466C 1243.44,1463.62 1243.77,1461.12 1243.5,1458.5 Z M 819.5,1539.5 C 842.353,1602.88 872.853,1662.21 911,1717.5C 944.465,1764.93 978.299,1812.1 1012.5,1859C 1000.72,1870.39 988.05,1871.39 974.5,1862C 945.667,1841.17 920.833,1816.33 900,1787.5C 860.079,1731.11 835.412,1668.45 826,1599.5C 822.845,1579.6 820.678,1559.6 819.5,1539.5 Z M 1226.5,1539.5 C 1224.16,1599.04 1211.99,1656.7 1190,1712.5C 1166.82,1764.7 1133.98,1809.87 1091.5,1848C 1082.69,1855.58 1073.02,1861.91 1062.5,1867C 1051.59,1869.94 1042.25,1867.27 1034.5,1859C 1068.7,1812.1 1102.53,1764.93 1136,1717.5C 1169.62,1669.27 1197.29,1617.6 1219,1562.5C 1222.01,1554.98 1224.51,1547.31 1226.5,1539.5 Z"/></g>
</svg>
