<?xml version="1.0" encoding="UTF-8"?>
<!DOCTYPE svg PUBLIC "-//W3C//DTD SVG 1.1//EN" "http://www.w3.org/Graphics/SVG/1.1/DTD/svg11.dtd">
<svg xmlns="http://www.w3.org/2000/svg" version="1.1" width="2048px" height="2048px" style="shape-rendering:geometricPrecision; text-rendering:geometricPrecision; image-rendering:optimizeQuality; fill-rule:evenodd; clip-rule:evenodd" xmlns:xlink="http://www.w3.org/1999/xlink">
<g><path style="opacity:0.993" fill="#fefffe" d="M 1007.5,227.5 C 1014.63,229.635 1019.97,233.968 1023.5,240.5C 1026.92,234.417 1031.92,230.083 1038.5,227.5C 1041.2,231.434 1042.04,235.768 1041,240.5C 1039.65,247.246 1037.98,253.913 1036,260.5C 1035.33,262.5 1035.33,264.5 1036,266.5C 1067.22,337.487 1092.89,410.487 1113,485.5C 1145.76,626.894 1137.76,765.894 1089,902.5C 1076.74,934.682 1062.07,965.682 1045,995.5C 1039.02,1003.98 1031.85,1011.31 1023.5,1017.5C 1008.99,1005.82 997.819,991.485 990,974.5C 944.377,884.678 919.377,789.344 915,688.5C 911.1,583.464 927.767,481.797 965,383.5C 978.948,343.941 994.281,304.941 1011,266.5C 1011.67,264.5 1011.67,262.5 1011,260.5C 1008.54,252.642 1006.7,244.642 1005.5,236.5C 1005.76,233.393 1006.43,230.393 1007.5,227.5 Z M 1022.5,298.5 C 1048.21,360.129 1069.71,423.462 1087,488.5C 1113.57,603.641 1112.9,718.641 1085,833.5C 1071.47,884.756 1055.14,935.09 1036,984.5C 1031.73,993.158 1027.56,1001.83 1023.5,1010.5C 1011.29,986.377 1001.12,961.377 993,935.5C 955.48,835.192 938.147,731.525 941,624.5C 944.259,557.541 956.259,492.208 977,428.5C 991.29,384.793 1006.46,341.459 1022.5,298.5 Z"/></g>
<g><path style="opacity:0.993" fill="#fefffe" d="M 623.5,914.5 C 704.367,912.025 783.701,921.858 861.5,944C 908.346,958.426 953.012,977.759 995.5,1002C 1003.98,1007.98 1011.31,1015.15 1017.5,1023.5C 1010.6,1032.9 1002.27,1040.73 992.5,1047C 887.833,1104.38 775.667,1132.88 656,1132.5C 586.517,1132.38 518.35,1122.88 451.5,1104C 388.395,1085.08 326.728,1062.41 266.5,1036C 264.5,1035.33 262.5,1035.33 260.5,1036C 252.642,1038.46 244.642,1040.3 236.5,1041.5C 233.14,1041.49 230.14,1040.49 227.5,1038.5C 230.083,1031.92 234.417,1026.92 240.5,1023.5C 234.417,1020.08 230.083,1015.08 227.5,1008.5C 231.434,1005.8 235.768,1004.96 240.5,1006C 247.246,1007.35 253.913,1009.02 260.5,1011C 262.5,1011.67 264.5,1011.67 266.5,1011C 343.02,976.915 422.02,949.915 503.5,930C 543.316,922.238 583.316,917.072 623.5,914.5 Z M 624.5,940.5 C 731.515,938.145 835.182,955.645 935.5,993C 961.377,1001.12 986.377,1011.29 1010.5,1023.5C 997.101,1030.2 983.434,1036.36 969.5,1042C 937.045,1053.6 904.378,1064.6 871.5,1075C 723.275,1118.52 575.608,1116.86 428.5,1070C 384.587,1055.97 341.254,1040.47 298.5,1023.5C 355.592,1001.13 413.592,981.293 472.5,964C 522.595,951.536 573.261,943.702 624.5,940.5 Z"/></g>
<g><path style="opacity:0.993" fill="#fefffe" d="M 1358.5,914.5 C 1447.21,911.589 1533.88,923.422 1618.5,950C 1673.66,967.386 1727.66,987.72 1780.5,1011C 1782.5,1011.67 1784.5,1011.67 1786.5,1011C 1794.36,1008.54 1802.36,1006.7 1810.5,1005.5C 1813.86,1005.51 1816.86,1006.51 1819.5,1008.5C 1816.92,1015.08 1812.58,1020.08 1806.5,1023.5C 1812.58,1026.92 1816.92,1031.92 1819.5,1038.5C 1816.86,1040.49 1813.86,1041.49 1810.5,1041.5C 1802.36,1040.3 1794.36,1038.46 1786.5,1036C 1784.5,1035.33 1782.5,1035.33 1780.5,1036C 1703.98,1070.09 1624.98,1097.09 1543.5,1117C 1407.83,1145.04 1274.83,1135.71 1144.5,1089C 1113.48,1077.15 1083.48,1063.15 1054.5,1047C 1044.73,1040.73 1036.4,1032.9 1029.5,1023.5C 1041.18,1008.99 1055.52,997.819 1072.5,990C 1162.51,944.498 1257.84,919.331 1358.5,914.5 Z M 1358.5,940.5 C 1447.3,937.685 1533.96,949.852 1618.5,977C 1662.41,991.025 1705.75,1006.53 1748.5,1023.5C 1680.79,1050.9 1611.46,1073.4 1540.5,1091C 1439.1,1111.96 1337.77,1111.62 1236.5,1090C 1212.55,1085.1 1188.88,1079.1 1165.5,1072C 1136.02,1062.39 1106.68,1052.39 1077.5,1042C 1063.57,1036.36 1049.9,1030.2 1036.5,1023.5C 1053.22,1014.64 1070.55,1007.14 1088.5,1001C 1123.18,988.662 1158.18,977.329 1193.5,967C 1247.88,953.381 1302.88,944.547 1358.5,940.5 Z"/></g>
<g><path style="opacity:0.993" fill="#fefffe" d="M 1022.5,1029.5 C 1032.48,1035.98 1040.65,1044.31 1047,1054.5C 1099.06,1149.04 1127.39,1250.37 1132,1358.5C 1135.9,1463.54 1119.23,1565.2 1082,1663.5C 1068.05,1703.06 1052.72,1742.06 1036,1780.5C 1035.33,1782.5 1035.33,1784.5 1036,1786.5C 1038.46,1794.36 1040.3,1802.36 1041.5,1810.5C 1041.49,1813.86 1040.49,1816.86 1038.5,1819.5C 1031.92,1816.92 1026.92,1812.58 1023.5,1806.5C 1020.08,1812.58 1015.08,1816.92 1008.5,1819.5C 1005.8,1815.57 1004.96,1811.23 1006,1806.5C 1007.35,1799.75 1009.02,1793.09 1011,1786.5C 1011.67,1784.5 1011.67,1782.5 1011,1780.5C 979.781,1709.51 954.115,1636.51 934,1561.5C 901.239,1420.11 909.239,1281.11 958,1144.5C 970.258,1112.32 984.925,1081.32 1002,1051.5C 1007.99,1043.34 1014.83,1036.01 1022.5,1029.5 Z M 1022.5,1036.5 C 1032.14,1052.79 1039.97,1070.12 1046,1088.5C 1061.02,1129.55 1074.02,1171.21 1085,1213.5C 1116.92,1345.2 1113.26,1475.87 1074,1605.5C 1058.84,1653.81 1042.01,1701.47 1023.5,1748.5C 998.648,1686.44 977.481,1623.11 960,1558.5C 933.429,1443.36 934.096,1328.36 962,1213.5C 977.7,1152.9 997.867,1093.9 1022.5,1036.5 Z"/></g>
</svg>
