<?xml version="1.0" encoding="UTF-8"?>
<!DOCTYPE svg PUBLIC "-//W3C//DTD SVG 1.1//EN" "http://www.w3.org/Graphics/SVG/1.1/DTD/svg11.dtd">
<svg xmlns="http://www.w3.org/2000/svg" version="1.1" width="2048px" height="2048px" style="shape-rendering:geometricPrecision; text-rendering:geometricPrecision; image-rendering:optimizeQuality; fill-rule:evenodd; clip-rule:evenodd" xmlns:xlink="http://www.w3.org/1999/xlink">
<g><path style="opacity:0.992" fill="#fefffe" d="M 1016.5,238.5 C 1019.09,238.396 1021.42,239.063 1023.5,240.5C 1025.17,239.833 1026.83,239.167 1028.5,238.5C 1029.44,238.608 1030.28,238.941 1031,239.5C 1031.79,243.091 1031.62,246.591 1030.5,250C 1041.31,274.084 1051.14,298.584 1060,323.5C 1076.45,391.649 1092.12,459.983 1107,528.5C 1115.73,571.855 1122.39,615.522 1127,659.5C 1129.89,694.504 1130.22,729.504 1128,764.5C 1151.34,713.23 1181.01,666.23 1217,623.5C 1271.21,565.507 1338.05,540.673 1417.5,549C 1436.65,550.602 1455.65,552.935 1474.5,556C 1472.07,543.255 1469.9,530.422 1468,517.5C 1467.05,511.657 1467.39,505.99 1469,500.5C 1473.06,506.631 1476.06,513.298 1478,520.5C 1481.64,533.399 1484.81,546.399 1487.5,559.5C 1505.55,562.929 1523.22,567.762 1540.5,574C 1542.5,575.333 1544.5,576.667 1546.5,578C 1541.01,579.614 1535.34,579.947 1529.5,579C 1516.58,577.096 1503.74,574.93 1491,572.5C 1495.84,600.911 1498.67,629.578 1499.5,658.5C 1498.44,734.11 1468.44,795.276 1409.5,842C 1370.33,872.44 1327.99,898.107 1282.5,919C 1336.77,915.711 1390.77,918.378 1444.5,927C 1467.56,930.676 1490.56,934.676 1513.5,939C 1581.31,953.695 1648.98,969.029 1716.5,985C 1743.97,993.933 1770.8,1004.43 1797,1016.5C 1800.41,1015.38 1803.91,1015.21 1807.5,1016C 1808.06,1016.72 1808.39,1017.56 1808.5,1018.5C 1807.83,1020.17 1807.17,1021.83 1806.5,1023.5C 1807.17,1025.17 1807.83,1026.83 1808.5,1028.5C 1808.39,1029.44 1808.06,1030.28 1807.5,1031C 1803.91,1031.79 1800.41,1031.62 1797,1030.5C 1772.92,1041.31 1748.42,1051.14 1723.5,1060C 1655.35,1076.45 1587.02,1092.12 1518.5,1107C 1475.14,1115.73 1431.48,1122.39 1387.5,1127C 1352.5,1129.89 1317.5,1130.22 1282.5,1128C 1333.77,1151.34 1380.77,1181.01 1423.5,1217C 1481.49,1271.21 1506.33,1338.05 1498,1417.5C 1496.4,1436.65 1494.06,1455.65 1491,1474.5C 1503.74,1472.07 1516.58,1469.9 1529.5,1468C 1535.34,1467.05 1541.01,1467.39 1546.5,1469C 1540.37,1473.06 1533.7,1476.06 1526.5,1478C 1513.6,1481.64 1500.6,1484.81 1487.5,1487.5C 1484.07,1505.55 1479.24,1523.22 1473,1540.5C 1471.67,1542.5 1470.33,1544.5 1469,1546.5C 1467.39,1541.01 1467.05,1535.34 1468,1529.5C 1469.9,1516.58 1472.07,1503.74 1474.5,1491C 1446.09,1495.84 1417.42,1498.67 1388.5,1499.5C 1312.89,1498.44 1251.72,1468.44 1205,1409.5C 1174.56,1370.33 1148.89,1327.99 1128,1282.5C 1131.29,1336.77 1128.62,1390.77 1120,1444.5C 1116.32,1467.56 1112.32,1490.56 1108,1513.5C 1093.3,1581.31 1077.97,1648.98 1062,1716.5C 1053.07,1743.97 1042.57,1770.8 1030.5,1797C 1031.62,1800.41 1031.79,1803.91 1031,1807.5C 1030.28,1808.06 1029.44,1808.39 1028.5,1808.5C 1026.83,1807.83 1025.17,1807.17 1023.5,1806.5C 1021.83,1807.17 1020.17,1807.83 1018.5,1808.5C 1017.56,1808.39 1016.72,1808.06 1016,1807.5C 1015.21,1803.91 1015.38,1800.41 1016.5,1797C 1005.69,1772.92 995.859,1748.42 987,1723.5C 970.546,1655.35 954.879,1587.02 940,1518.5C 931.274,1475.14 924.607,1431.48 920,1387.5C 917.111,1352.5 916.777,1317.5 919,1282.5C 895.657,1333.77 865.99,1380.77 830,1423.5C 775.787,1481.49 708.954,1506.33 629.5,1498C 610.353,1496.4 591.353,1494.06 572.5,1491C 574.93,1503.74 577.096,1516.58 579,1529.5C 579.947,1535.34 579.614,1541.01 578,1546.5C 573.937,1540.37 570.937,1533.7 569,1526.5C 565.359,1513.6 562.192,1500.6 559.5,1487.5C 541.45,1484.07 523.784,1479.24 506.5,1473C 504.5,1471.67 502.5,1470.33 500.5,1469C 505.99,1467.39 511.657,1467.05 517.5,1468C 530.422,1469.9 543.255,1472.07 556,1474.5C 551.159,1446.09 548.325,1417.42 547.5,1388.5C 548.556,1312.89 578.556,1251.72 637.5,1205C 676.672,1174.56 719.005,1148.89 764.5,1128C 710.235,1131.29 656.235,1128.62 602.5,1120C 579.442,1116.32 556.442,1112.32 533.5,1108C 465.689,1093.3 398.023,1077.97 330.5,1062C 303.029,1053.07 276.196,1042.57 250,1030.5C 246.591,1031.62 243.091,1031.79 239.5,1031C 238.941,1030.28 238.608,1029.44 238.5,1028.5C 239.167,1026.83 239.833,1025.17 240.5,1023.5C 239.833,1021.83 239.167,1020.17 238.5,1018.5C 238.608,1017.56 238.941,1016.72 239.5,1016C 243.091,1015.21 246.591,1015.38 250,1016.5C 274.084,1005.69 298.584,995.859 323.5,987C 391.649,970.546 459.983,954.879 528.5,940C 571.855,931.274 615.522,924.607 659.5,920C 694.504,917.111 729.504,916.777 764.5,919C 713.23,895.657 666.23,865.99 623.5,830C 565.507,775.787 540.673,708.954 549,629.5C 550.602,610.353 552.935,591.353 556,572.5C 543.255,574.93 530.422,577.096 517.5,579C 511.657,579.947 505.99,579.614 500.5,578C 506.631,573.937 513.298,570.937 520.5,569C 533.399,565.359 546.399,562.192 559.5,559.5C 562.929,541.45 567.762,523.784 574,506.5C 575.333,504.5 576.667,502.5 578,500.5C 579.614,505.99 579.947,511.657 579,517.5C 577.096,530.422 574.93,543.255 572.5,556C 600.911,551.159 629.578,548.325 658.5,547.5C 734.11,548.556 795.276,578.556 842,637.5C 872.44,676.672 898.107,719.005 919,764.5C 915.711,710.235 918.378,656.235 927,602.5C 929.892,584.814 932.892,567.148 936,549.5C 951.312,476.274 967.645,403.274 985,330.5C 993.933,303.029 1004.43,276.196 1016.5,250C 1015.2,246.168 1015.2,242.334 1016.5,238.5 Z M 1022.5,282.5 C 1029.69,298.551 1035.86,315.217 1041,332.5C 1060.58,412.15 1078.58,492.15 1095,572.5C 1108.34,638.287 1112.34,704.62 1107,771.5C 1105.27,790.963 1102.6,810.297 1099,829.5C 1077.83,880.668 1058.83,932.668 1042,985.5C 1036.34,996.164 1030.17,1006.5 1023.5,1016.5C 1016.83,1006.5 1010.66,996.164 1005,985.5C 988.168,932.668 969.168,880.668 948,829.5C 936.499,766.139 934.499,702.473 942,638.5C 945.801,609.029 950.467,579.695 956,550.5C 971.029,481.689 986.696,413.022 1003,344.5C 1009.01,323.645 1015.51,302.978 1022.5,282.5 Z M 988.5,988.5 C 940.047,957.841 887.38,937.674 830.5,928C 773.75,903.299 719.75,873.966 668.5,840C 640.081,820.249 615.581,796.416 595,768.5C 572.968,733.047 562.135,694.38 562.5,652.5C 563.189,624.964 565.856,597.63 570.5,570.5C 606.242,563.873 642.242,561.707 678.5,564C 732.66,569.994 777.493,593.494 813,634.5C 842.892,670.588 868.559,709.588 890,751.5C 903.406,776.312 915.74,801.646 927,827.5C 936.966,885.392 957.466,939.059 988.5,988.5 Z M 1058.5,988.5 C 1089.16,940.047 1109.33,887.38 1119,830.5C 1143.7,773.75 1173.03,719.75 1207,668.5C 1226.75,640.081 1250.58,615.581 1278.5,595C 1313.95,572.968 1352.62,562.135 1394.5,562.5C 1422.04,563.189 1449.37,565.856 1476.5,570.5C 1483.13,606.242 1485.29,642.242 1483,678.5C 1477.01,732.66 1453.51,777.493 1412.5,813C 1376.41,842.892 1337.41,868.559 1295.5,890C 1270.69,903.406 1245.35,915.74 1219.5,927C 1161.61,936.966 1107.94,957.466 1058.5,988.5 Z M 690.5,937.5 C 737.212,936.087 783.545,939.587 829.5,948C 880.668,969.168 932.668,988.168 985.5,1005C 996.164,1010.66 1006.5,1016.83 1016.5,1023.5C 1006.5,1030.17 996.164,1036.34 985.5,1042C 932.668,1058.83 880.668,1077.83 829.5,1099C 763.432,1110.94 697.099,1112.61 630.5,1104C 595.295,1099.19 560.295,1093.19 525.5,1086C 461.108,1071.25 396.775,1056.25 332.5,1041C 315.651,1035.66 298.984,1029.83 282.5,1023.5C 298.984,1017.17 315.651,1011.34 332.5,1006C 396.775,990.745 461.108,975.745 525.5,961C 580.095,949.177 635.095,941.344 690.5,937.5 Z M 1306.5,937.5 C 1352.8,936.356 1398.8,939.523 1444.5,947C 1461.87,949.784 1479.21,952.784 1496.5,956C 1569.38,971.72 1642.05,988.387 1714.5,1006C 1731.35,1011.34 1748.02,1017.17 1764.5,1023.5C 1748.02,1029.83 1731.35,1035.66 1714.5,1041C 1650.23,1056.25 1585.89,1071.25 1521.5,1086C 1467.09,1097.96 1412.09,1105.63 1356.5,1109C 1309.79,1110.91 1263.45,1107.58 1217.5,1099C 1166.33,1077.83 1114.33,1058.83 1061.5,1042C 1050.84,1036.34 1040.5,1030.17 1030.5,1023.5C 1040.5,1016.83 1050.84,1010.66 1061.5,1005C 1114.33,988.168 1166.33,969.168 1217.5,948C 1247.11,942.693 1276.77,939.193 1306.5,937.5 Z M 1022.5,1030.5 C 1029.87,1040.09 1036.37,1050.42 1042,1061.5C 1058.83,1114.33 1077.83,1166.33 1099,1217.5C 1110.5,1280.86 1112.5,1344.53 1105,1408.5C 1101.2,1437.97 1096.53,1467.3 1091,1496.5C 1075.28,1569.38 1058.61,1642.05 1041,1714.5C 1035.66,1731.35 1029.83,1748.02 1023.5,1764.5C 1017.17,1748.02 1011.34,1731.35 1006,1714.5C 988.387,1642.05 971.72,1569.38 956,1496.5C 944.49,1442.09 938.323,1387.09 937.5,1331.5C 937.499,1293.18 940.999,1255.18 948,1217.5C 969.168,1166.33 988.168,1114.33 1005,1061.5C 1010.86,1051.11 1016.69,1040.78 1022.5,1030.5 Z M 988.5,1058.5 C 957.841,1106.95 937.674,1159.62 928,1216.5C 903.299,1273.25 873.966,1327.25 840,1378.5C 820.249,1406.92 796.416,1431.42 768.5,1452C 733.047,1474.03 694.38,1484.87 652.5,1484.5C 624.964,1483.81 597.63,1481.14 570.5,1476.5C 563.873,1440.76 561.707,1404.76 564,1368.5C 569.994,1314.34 593.494,1269.51 634.5,1234C 670.588,1204.11 709.588,1178.44 751.5,1157C 776.312,1143.59 801.646,1131.26 827.5,1120C 885.392,1110.03 939.059,1089.53 988.5,1058.5 Z M 1058.5,1058.5 C 1106.95,1089.16 1159.62,1109.33 1216.5,1119C 1273.25,1143.7 1327.25,1173.03 1378.5,1207C 1406.92,1226.75 1431.42,1250.58 1452,1278.5C 1474.03,1313.95 1484.87,1352.62 1484.5,1394.5C 1483.81,1422.04 1481.14,1449.37 1476.5,1476.5C 1440.76,1483.13 1404.76,1485.29 1368.5,1483C 1314.34,1477.01 1269.51,1453.51 1234,1412.5C 1204.11,1376.41 1178.44,1337.41 1157,1295.5C 1143.59,1270.69 1131.26,1245.35 1120,1219.5C 1110.03,1161.61 1089.53,1107.94 1058.5,1058.5 Z"/></g>
</svg>
