<?xml version="1.0" encoding="UTF-8"?>
<!DOCTYPE svg PUBLIC "-//W3C//DTD SVG 1.1//EN" "http://www.w3.org/Graphics/SVG/1.1/DTD/svg11.dtd">
<svg xmlns="http://www.w3.org/2000/svg" version="1.1" width="2048px" height="2048px" style="shape-rendering:geometricPrecision; text-rendering:geometricPrecision; image-rendering:optimizeQuality; fill-rule:evenodd; clip-rule:evenodd" xmlns:xlink="http://www.w3.org/1999/xlink">
<g><path style="opacity:0.976" fill="#fefffe" d="M 1205.5,573.5 C 1207.31,570.564 1209.14,567.564 1211,564.5C 1211.67,566.167 1211.67,567.833 1211,569.5C 1202.2,594.909 1193.2,620.242 1184,645.5C 1156.61,716.69 1128.28,787.356 1099,857.5C 1126.09,872.627 1153.25,887.627 1180.5,902.5C 1259.17,853.167 1337.83,803.833 1416.5,754.5C 1417.7,754.846 1417.7,755.346 1416.5,756C 1339.68,806.249 1262.34,855.749 1184.5,904.5C 1210.17,919.667 1235.83,934.833 1261.5,950C 1295.66,971.339 1329.66,992.839 1363.5,1014.5C 1394.14,995.593 1425.97,978.593 1459,963.5C 1459.17,964 1459.33,964.5 1459.5,965C 1432.92,985.966 1405.25,1005.47 1376.5,1023.5C 1404.53,1041.51 1431.86,1060.51 1458.5,1080.5C 1459.58,1081.36 1459.75,1082.36 1459,1083.5C 1425.97,1068.41 1394.14,1051.41 1363.5,1032.5C 1329.66,1054.16 1295.66,1075.66 1261.5,1097C 1235.83,1112.17 1210.17,1127.33 1184.5,1142.5C 1262.85,1191.34 1340.51,1241.17 1417.5,1292C 1414.38,1291.28 1411.38,1289.95 1408.5,1288C 1332.67,1239.92 1256.67,1192.08 1180.5,1144.5C 1156.17,1157.67 1131.83,1170.83 1107.5,1184C 1104.11,1185.69 1101.11,1187.86 1098.5,1190.5C 1139.23,1284.86 1176.73,1380.53 1211,1477.5C 1211.67,1479.17 1211.67,1480.83 1211,1482.5C 1209.14,1479.44 1207.31,1476.44 1205.5,1473.5C 1187.23,1507.42 1166.56,1539.76 1143.5,1570.5C 1162.83,1594.83 1182.17,1619.17 1201.5,1643.5C 1201,1644.52 1200.33,1644.69 1199.5,1644C 1177.67,1623.5 1156.5,1602.33 1136,1580.5C 1100.65,1625.86 1064.81,1670.86 1028.5,1715.5C 1048.91,1741.99 1069.08,1768.65 1089,1795.5C 1090.87,1797.57 1091.87,1799.9 1092,1802.5C 1068.58,1776.25 1045.74,1749.58 1023.5,1722.5C 1001.26,1749.58 978.424,1776.25 955,1802.5C 955.126,1799.9 956.126,1797.57 958,1795.5C 977.924,1768.65 998.09,1741.99 1018.5,1715.5C 982.186,1670.86 946.352,1625.86 911,1580.5C 890.5,1602.33 869.333,1623.5 847.5,1644C 846.668,1644.69 846.002,1644.52 845.5,1643.5C 864.833,1619.17 884.167,1594.83 903.5,1570.5C 880.439,1539.76 859.773,1507.42 841.5,1473.5C 839.692,1476.44 837.859,1479.44 836,1482.5C 835.333,1480.83 835.333,1479.17 836,1477.5C 844.803,1452.09 853.803,1426.76 863,1401.5C 890.388,1330.31 918.721,1259.64 948,1189.5C 920.914,1174.37 893.747,1159.37 866.5,1144.5C 787.833,1193.83 709.167,1243.17 630.5,1292.5C 629.304,1292.15 629.304,1291.65 630.5,1291C 707.325,1240.75 784.658,1191.25 862.5,1142.5C 836.833,1127.33 811.167,1112.17 785.5,1097C 751.343,1075.66 717.343,1054.16 683.5,1032.5C 652.863,1051.41 621.03,1068.41 588,1083.5C 587.833,1083 587.667,1082.5 587.5,1082C 614.085,1061.03 641.751,1041.53 670.5,1023.5C 642.469,1005.49 615.135,986.486 588.5,966.5C 587.417,965.635 587.251,964.635 588,963.5C 621.03,978.593 652.863,995.593 683.5,1014.5C 717.343,992.839 751.343,971.339 785.5,950C 811.167,934.833 836.833,919.667 862.5,904.5C 784.154,855.664 706.488,805.831 629.5,755C 632.623,755.721 635.623,757.054 638.5,759C 714.331,807.083 790.331,854.917 866.5,902.5C 890.833,889.333 915.167,876.167 939.5,863C 942.891,861.311 945.891,859.144 948.5,856.5C 907.766,762.137 870.266,666.47 836,569.5C 835.333,567.833 835.333,566.167 836,564.5C 837.859,567.564 839.692,570.564 841.5,573.5C 859.773,539.576 880.439,507.243 903.5,476.5C 884.167,452.167 864.833,427.833 845.5,403.5C 846.002,402.479 846.668,402.312 847.5,403C 869.333,423.5 890.5,444.667 911,466.5C 946.352,421.135 982.186,376.135 1018.5,331.5C 998.09,305.013 977.924,278.346 958,251.5C 956.126,249.431 955.126,247.098 955,244.5C 978.424,270.75 1001.26,297.417 1023.5,324.5C 1045.74,297.417 1068.58,270.75 1092,244.5C 1091.87,247.098 1090.87,249.431 1089,251.5C 1069.08,278.346 1048.91,305.013 1028.5,331.5C 1064.81,376.135 1100.65,421.135 1136,466.5C 1156.5,444.667 1177.67,423.5 1199.5,403C 1200.33,402.312 1201,402.479 1201.5,403.5C 1182.17,427.833 1162.83,452.167 1143.5,476.5C 1166.56,507.243 1187.23,539.576 1205.5,573.5 Z M 1022.5,338.5 C 1024.02,338.511 1025.18,339.177 1026,340.5C 1060.83,384.667 1095.67,428.833 1130.5,473C 1094.62,511.376 1058.95,549.876 1023.5,588.5C 988.045,549.876 952.379,511.376 916.5,473C 952.048,428.291 987.381,383.458 1022.5,338.5 Z M 841.5,573.5 C 842.397,574.598 843.23,574.598 844,573.5C 864.115,542.053 885.781,511.72 909,482.5C 943.833,521.5 978.667,560.5 1013.5,599.5C 976.085,641.069 941.918,685.069 911,731.5C 889.868,677.938 866.702,625.271 841.5,573.5 Z M 1205.5,573.5 C 1180.3,625.271 1157.13,677.938 1136,731.5C 1105.08,685.069 1070.92,641.069 1033.5,599.5C 1068.33,560.5 1103.17,521.5 1138,482.5C 1161.22,511.72 1182.89,542.053 1203,573.5C 1203.77,574.598 1204.6,574.598 1205.5,573.5 Z M 1022.5,610.5 C 1062.49,649.982 1099.82,691.815 1134.5,736C 1117.3,777.157 1100.47,817.99 1084,858.5C 1068.67,896.5 1053.33,934.5 1038,972.5C 1033.64,983.081 1028.81,993.414 1023.5,1003.5C 1018.19,993.414 1013.36,983.081 1009,972.5C 992.215,930.723 975.548,889.39 959,848.5C 943.691,810.902 928.191,773.402 912.5,736C 924.954,719.877 937.788,704.044 951,688.5C 975.04,662.63 998.873,636.63 1022.5,610.5 Z M 1017.5,1005.5 C 1017.5,1004.83 1017.17,1004.5 1016.5,1004.5C 1015.74,1002.74 1014.4,1001.74 1012.5,1001.5C 1011.74,999.738 1010.4,998.738 1008.5,998.5C 1007.74,996.738 1006.4,995.738 1004.5,995.5C 963.966,964.217 921.632,935.383 877.5,909C 902.094,893.788 926.261,877.955 950,861.5C 968.163,902.829 987.163,943.829 1007,984.5C 1011.04,991.417 1015.21,998.25 1019.5,1005C 1018.91,1005.46 1018.24,1005.63 1017.5,1005.5 Z M 1042.5,995.5 C 1040.6,995.738 1039.26,996.738 1038.5,998.5C 1036.6,998.738 1035.26,999.738 1034.5,1001.5C 1032.6,1001.74 1031.26,1002.74 1030.5,1004.5C 1029.83,1004.5 1029.5,1004.83 1029.5,1005.5C 1028.76,1005.63 1028.09,1005.46 1027.5,1005C 1037.14,990.222 1045.64,974.722 1053,958.5C 1067.96,926.255 1082.62,893.922 1097,861.5C 1120.74,877.955 1144.91,893.788 1169.5,909C 1125.37,935.383 1083.03,964.217 1042.5,995.5 Z M 1004.5,995.5 C 1005.26,997.262 1006.6,998.262 1008.5,998.5C 1009.26,1000.26 1010.6,1001.26 1012.5,1001.5C 1013.26,1003.26 1014.6,1004.26 1016.5,1004.5C 1017.17,1004.5 1017.5,1004.83 1017.5,1005.5C 1018.8,1006.83 1020.13,1008.16 1021.5,1009.5C 1018.8,1013.53 1017.3,1017.86 1017,1022.5C 1019.18,1019.46 1021.35,1016.46 1023.5,1013.5C 1025.65,1016.46 1027.82,1019.46 1030,1022.5C 1029.7,1017.86 1028.2,1013.53 1025.5,1009.5C 1026.87,1008.16 1028.2,1006.83 1029.5,1005.5C 1030.17,1005.5 1030.5,1005.17 1030.5,1004.5C 1032.4,1004.26 1033.74,1003.26 1034.5,1001.5C 1036.4,1001.26 1037.74,1000.26 1038.5,998.5C 1040.4,998.262 1041.74,997.262 1042.5,995.5C 1084.76,966.026 1128.09,938.026 1172.5,911.5C 1231.33,949.083 1290.33,986.417 1349.5,1023.5C 1290.33,1060.58 1231.33,1097.92 1172.5,1135.5C 1128.09,1108.97 1084.76,1080.97 1042.5,1051.5C 1041.74,1049.74 1040.4,1048.74 1038.5,1048.5C 1037.74,1046.74 1036.4,1045.74 1034.5,1045.5C 1033.74,1043.74 1032.4,1042.74 1030.5,1042.5C 1030.5,1041.83 1030.17,1041.5 1029.5,1041.5C 1028.2,1040.17 1026.87,1038.84 1025.5,1037.5C 1028.2,1033.47 1029.7,1029.14 1030,1024.5C 1027.82,1027.54 1025.65,1030.54 1023.5,1033.5C 1021.35,1030.54 1019.18,1027.54 1017,1024.5C 1017.3,1029.14 1018.8,1033.47 1021.5,1037.5C 1020.13,1038.84 1018.8,1040.17 1017.5,1041.5C 1016.83,1041.5 1016.5,1041.83 1016.5,1042.5C 1014.6,1042.74 1013.26,1043.74 1012.5,1045.5C 1010.6,1045.74 1009.26,1046.74 1008.5,1048.5C 1006.6,1048.74 1005.26,1049.74 1004.5,1051.5C 962.244,1080.97 918.911,1108.97 874.5,1135.5C 815.669,1097.92 756.669,1060.58 697.5,1023.5C 756.669,986.417 815.669,949.083 874.5,911.5C 918.911,938.026 962.244,966.026 1004.5,995.5 Z M 1017.5,1041.5 C 1018.24,1041.37 1018.91,1041.54 1019.5,1042C 1009.86,1056.78 1001.36,1072.28 994,1088.5C 979.042,1120.75 964.376,1153.08 950,1185.5C 926.261,1169.04 902.094,1153.21 877.5,1138C 921.632,1111.62 963.966,1082.78 1004.5,1051.5C 1006.4,1051.26 1007.74,1050.26 1008.5,1048.5C 1010.4,1048.26 1011.74,1047.26 1012.5,1045.5C 1014.4,1045.26 1015.74,1044.26 1016.5,1042.5C 1017.17,1042.5 1017.5,1042.17 1017.5,1041.5 Z M 1029.5,1041.5 C 1030.17,1041.5 1030.5,1041.83 1030.5,1042.5C 1031.26,1044.26 1032.6,1045.26 1034.5,1045.5C 1035.26,1047.26 1036.6,1048.26 1038.5,1048.5C 1039.26,1050.26 1040.6,1051.26 1042.5,1051.5C 1083.03,1082.78 1125.37,1111.62 1169.5,1138C 1144.91,1153.21 1120.74,1169.04 1097,1185.5C 1078.84,1144.17 1059.84,1103.17 1040,1062.5C 1035.96,1055.58 1031.79,1048.75 1027.5,1042C 1028.09,1041.54 1028.76,1041.37 1029.5,1041.5 Z M 1022.5,1043.5 C 1023.38,1043.37 1024.04,1043.7 1024.5,1044.5C 1045.71,1093.64 1066.05,1143.14 1085.5,1193C 1101.53,1231.99 1117.86,1271.32 1134.5,1311C 1099.72,1354.66 1062.72,1396.49 1023.5,1436.5C 984.276,1396.49 947.276,1354.66 912.5,1311C 929.697,1269.84 946.531,1229.01 963,1188.5C 982.293,1139.92 1002.13,1091.58 1022.5,1043.5 Z M 841.5,1473.5 C 866.702,1421.73 889.868,1369.06 911,1315.5C 941.918,1361.93 976.085,1405.93 1013.5,1447.5C 978.667,1486.5 943.833,1525.5 909,1564.5C 885.781,1535.28 864.115,1504.95 844,1473.5C 843.23,1472.4 842.397,1472.4 841.5,1473.5 Z M 1205.5,1473.5 C 1204.6,1472.4 1203.77,1472.4 1203,1473.5C 1182.89,1504.95 1161.22,1535.28 1138,1564.5C 1103.17,1525.5 1068.33,1486.5 1033.5,1447.5C 1070.92,1405.93 1105.08,1361.93 1136,1315.5C 1157.13,1369.06 1180.3,1421.73 1205.5,1473.5 Z M 1022.5,1458.5 C 1025.06,1459.54 1027.22,1461.21 1029,1463.5C 1062.46,1500.63 1096.3,1537.47 1130.5,1574C 1094.99,1619 1059.33,1663.84 1023.5,1708.5C 987.674,1663.84 952.007,1619 916.5,1574C 952.408,1535.93 987.741,1497.43 1022.5,1458.5 Z"/></g>
<g><path style="opacity:0.982" fill="#fefffe" d="M 632.5,740.5 C 634.355,740.272 635.188,740.939 635,742.5C 628.833,748.667 622.667,754.833 616.5,761C 594.195,779.15 571.529,796.816 548.5,814C 494.554,852.279 440.887,890.946 387.5,930C 342.5,961.167 297.5,992.333 252.5,1023.5C 297.5,1054.67 342.5,1085.83 387.5,1117C 440.887,1156.05 494.554,1194.72 548.5,1233C 568.5,1248.33 588.5,1263.67 608.5,1279C 617.637,1287.14 626.47,1295.64 635,1304.5C 635.591,1305.48 635.257,1306.15 634,1306.5C 617.792,1293.96 601.292,1281.8 584.5,1270C 468.62,1193.45 354.953,1113.78 243.5,1031C 241.711,1030.48 240.044,1030.81 238.5,1032C 222.583,1042.21 206.416,1052.04 190,1061.5C 189.833,1061 189.667,1060.5 189.5,1060C 203.691,1047.64 218.025,1035.47 232.5,1023.5C 218.525,1011.86 204.525,1000.2 190.5,988.5C 189.417,987.635 189.251,986.635 190,985.5C 206.416,994.957 222.583,1004.79 238.5,1015C 240.044,1016.19 241.711,1016.52 243.5,1016C 297.554,976.28 351.887,936.946 406.5,898C 472.5,853 538.5,808 604.5,763C 614.086,755.721 623.419,748.221 632.5,740.5 Z"/></g>
<g><path style="opacity:0.982" fill="#fefffe" d="M 1411.5,740.5 C 1413.31,740.491 1414.98,740.991 1416.5,742C 1431.11,754.637 1446.45,766.304 1462.5,777C 1578.38,853.553 1692.05,933.219 1803.5,1016C 1805.29,1016.52 1806.96,1016.19 1808.5,1015C 1824.42,1004.79 1840.58,994.957 1857,985.5C 1857.17,986 1857.33,986.5 1857.5,987C 1843.31,999.36 1828.98,1011.53 1814.5,1023.5C 1828.48,1035.14 1842.48,1046.8 1856.5,1058.5C 1857.58,1059.36 1857.75,1060.36 1857,1061.5C 1840.58,1052.04 1824.42,1042.21 1808.5,1032C 1806.96,1030.81 1805.29,1030.48 1803.5,1031C 1696.38,1110.78 1587.05,1187.45 1475.5,1261C 1454.21,1275.56 1433.37,1290.73 1413,1306.5C 1411.74,1306.15 1411.41,1305.48 1412,1304.5C 1420.53,1295.64 1429.36,1287.14 1438.5,1279C 1458.5,1263.67 1478.5,1248.33 1498.5,1233C 1552.45,1194.72 1606.11,1156.05 1659.5,1117C 1704.5,1085.83 1749.5,1054.67 1794.5,1023.5C 1749.5,992.333 1704.5,961.167 1659.5,930C 1606.11,890.946 1552.45,852.279 1498.5,814C 1478.5,798.667 1458.5,783.333 1438.5,768C 1428.61,759.608 1419.61,750.441 1411.5,740.5 Z"/></g>
<g><path style="opacity:1" fill="#fefffe" d="M 1004.5,995.5 C 1006.4,995.738 1007.74,996.738 1008.5,998.5C 1006.6,998.262 1005.26,997.262 1004.5,995.5 Z"/></g>
<g><path style="opacity:1" fill="#fefffe" d="M 1042.5,995.5 C 1041.74,997.262 1040.4,998.262 1038.5,998.5C 1039.26,996.738 1040.6,995.738 1042.5,995.5 Z"/></g>
<g><path style="opacity:1" fill="#fefffe" d="M 1008.5,998.5 C 1010.4,998.738 1011.74,999.738 1012.5,1001.5C 1010.6,1001.26 1009.26,1000.26 1008.5,998.5 Z"/></g>
<g><path style="opacity:1" fill="#fefffe" d="M 1038.5,998.5 C 1037.74,1000.26 1036.4,1001.26 1034.5,1001.5C 1035.26,999.738 1036.6,998.738 1038.5,998.5 Z"/></g>
<g><path style="opacity:0.954" fill="#fefffe" d="M 1012.5,1001.5 C 1014.4,1001.74 1015.74,1002.74 1016.5,1004.5C 1014.6,1004.26 1013.26,1003.26 1012.5,1001.5 Z"/></g>
<g><path style="opacity:0.954" fill="#fefffe" d="M 1034.5,1001.5 C 1033.74,1003.26 1032.4,1004.26 1030.5,1004.5C 1031.26,1002.74 1032.6,1001.74 1034.5,1001.5 Z"/></g>
<g><path style="opacity:0.954" fill="#fefffe" d="M 1016.5,1042.5 C 1015.74,1044.26 1014.4,1045.26 1012.5,1045.5C 1013.26,1043.74 1014.6,1042.74 1016.5,1042.5 Z"/></g>
<g><path style="opacity:0.954" fill="#fefffe" d="M 1030.5,1042.5 C 1032.4,1042.74 1033.74,1043.74 1034.5,1045.5C 1032.6,1045.26 1031.26,1044.26 1030.5,1042.5 Z"/></g>
<g><path style="opacity:1" fill="#fefffe" d="M 1012.5,1045.5 C 1011.74,1047.26 1010.4,1048.26 1008.5,1048.5C 1009.26,1046.74 1010.6,1045.74 1012.5,1045.5 Z"/></g>
<g><path style="opacity:1" fill="#fefffe" d="M 1034.5,1045.5 C 1036.4,1045.74 1037.74,1046.74 1038.5,1048.5C 1036.6,1048.26 1035.26,1047.26 1034.5,1045.5 Z"/></g>
<g><path style="opacity:1" fill="#fefffe" d="M 1008.5,1048.5 C 1007.74,1050.26 1006.4,1051.26 1004.5,1051.5C 1005.26,1049.74 1006.6,1048.74 1008.5,1048.5 Z"/></g>
<g><path style="opacity:1" fill="#fefffe" d="M 1038.5,1048.5 C 1040.4,1048.74 1041.74,1049.74 1042.5,1051.5C 1040.6,1051.26 1039.26,1050.26 1038.5,1048.5 Z"/></g>
</svg>
