<?xml version="1.0" encoding="UTF-8"?>
<!DOCTYPE svg PUBLIC "-//W3C//DTD SVG 1.1//EN" "http://www.w3.org/Graphics/SVG/1.1/DTD/svg11.dtd">
<svg xmlns="http://www.w3.org/2000/svg" version="1.1" width="2048px" height="2048px" style="shape-rendering:geometricPrecision; text-rendering:geometricPrecision; image-rendering:optimizeQuality; fill-rule:evenodd; clip-rule:evenodd" xmlns:xlink="http://www.w3.org/1999/xlink">
<g><path style="opacity:0.994" fill="#fefffe" d="M 454.5,227.5 C 473.259,229.362 491.259,234.195 508.5,242C 535.106,254.968 561.106,268.968 586.5,284C 706.764,355.674 824.264,431.174 939,510.5C 945.227,516.62 950.227,523.62 954,531.5C 977.288,589.701 994.288,649.701 1005,711.5C 1011.77,750.077 1017.94,788.744 1023.5,827.5C 1031.28,770.478 1041.11,713.812 1053,657.5C 1063.52,614.597 1076.86,572.597 1093,531.5C 1097.63,522.2 1103.8,514.033 1111.5,507C 1195.94,450.269 1281.28,394.603 1367.5,340C 1418.72,308.47 1470.72,278.136 1523.5,249C 1542.04,239.821 1561.37,232.821 1581.5,228C 1587.34,226.676 1592.68,227.676 1597.5,231C 1596.51,249.235 1594.01,267.402 1590,285.5C 1573.74,359.644 1556.9,433.644 1539.5,507.5C 1613.36,490.095 1687.36,473.262 1761.5,457C 1779.6,452.985 1797.76,450.485 1816,449.5C 1819.32,454.324 1820.32,459.657 1819,465.5C 1814.18,485.629 1807.18,504.963 1798,523.5C 1768.86,576.278 1738.53,628.278 1707,679.5C 1652.4,765.722 1596.73,851.055 1540,935.5C 1532.97,943.204 1524.8,949.37 1515.5,954C 1453.8,978.675 1390.13,996.342 1324.5,1007C 1289.56,1012.93 1254.56,1018.43 1219.5,1023.5C 1276.52,1031.28 1333.19,1041.11 1389.5,1053C 1432.4,1063.52 1474.4,1076.86 1515.5,1093C 1524.8,1097.63 1532.97,1103.8 1540,1111.5C 1596.73,1195.94 1652.4,1281.28 1707,1367.5C 1738.53,1418.72 1768.86,1470.72 1798,1523.5C 1807.18,1542.04 1814.18,1561.37 1819,1581.5C 1820.32,1587.34 1819.32,1592.68 1816,1597.5C 1797.76,1596.51 1779.6,1594.01 1761.5,1590C 1687.36,1573.74 1613.36,1556.9 1539.5,1539.5C 1556.9,1613.36 1573.74,1687.36 1590,1761.5C 1594.01,1779.6 1596.51,1797.76 1597.5,1816C 1592.68,1819.32 1587.34,1820.32 1581.5,1819C 1561.37,1814.18 1542.04,1807.18 1523.5,1798C 1470.72,1768.86 1418.72,1738.53 1367.5,1707C 1281.28,1652.4 1195.94,1596.73 1111.5,1540C 1103.8,1532.97 1097.63,1524.8 1093,1515.5C 1068.32,1453.8 1050.66,1390.13 1040,1324.5C 1034.07,1289.56 1028.57,1254.56 1023.5,1219.5C 1015.72,1276.52 1005.89,1333.19 994,1389.5C 983.477,1432.4 970.143,1474.4 954,1515.5C 949.37,1524.8 943.204,1532.97 935.5,1540C 851.055,1596.73 765.722,1652.4 679.5,1707C 628.278,1738.53 576.278,1768.86 523.5,1798C 504.963,1807.18 485.629,1814.18 465.5,1819C 459.657,1820.32 454.324,1819.32 449.5,1816C 450.485,1797.76 452.985,1779.6 457,1761.5C 473.262,1687.36 490.095,1613.36 507.5,1539.5C 433.644,1556.9 359.644,1573.74 285.5,1590C 267.402,1594.01 249.235,1596.51 231,1597.5C 227.676,1592.68 226.676,1587.34 228,1581.5C 232.821,1561.37 239.821,1542.04 249,1523.5C 278.136,1470.72 308.47,1418.72 340,1367.5C 394.603,1281.28 450.269,1195.94 507,1111.5C 514.033,1103.8 522.2,1097.63 531.5,1093C 593.199,1068.32 656.866,1050.66 722.5,1040C 757.439,1034.07 792.439,1028.57 827.5,1023.5C 770.478,1015.72 713.812,1005.89 657.5,994C 614.597,983.477 572.597,970.143 531.5,954C 522.2,949.37 514.033,943.204 507,935.5C 450.269,851.055 394.603,765.722 340,679.5C 308.47,628.278 278.136,576.278 249,523.5C 239.821,504.963 232.821,485.629 228,465.5C 226.676,459.657 227.676,454.324 231,449.5C 249.235,450.485 267.402,452.985 285.5,457C 359.644,473.262 433.644,490.095 507.5,507.5C 489.762,431.977 472.595,356.311 456,280.5C 452.68,264.257 450.347,247.923 449,231.5C 451.167,230.512 453,229.179 454.5,227.5 Z M 461.5,255.5 C 485.139,271.326 509.472,286.16 534.5,300C 636.673,356.587 739.006,412.921 841.5,469C 870.741,483.787 900.074,498.287 929.5,512.5C 927.126,518.085 926.126,523.918 926.5,530C 927.291,541.917 928.791,553.75 931,565.5C 953.421,683.695 975.088,802.028 996,920.5C 1002.57,952.726 1009.07,984.726 1015.5,1016.5C 984.023,1008.88 952.356,1002.05 920.5,996C 802.028,975.088 683.695,953.421 565.5,931C 550.657,927.688 535.657,926.355 520.5,927C 517.736,927.532 515.07,928.366 512.5,929.5C 488.975,880.115 464.141,831.448 438,783.5C 384.08,687.328 330.413,590.995 277,494.5C 270.004,483.347 262.837,472.347 255.5,461.5C 341.296,495.044 428.463,524.71 517,550.5C 536.458,630.791 552.458,711.791 565,793.5C 570.421,833.87 576.088,874.203 582,914.5C 583.167,920.348 585.667,925.514 589.5,930C 590.635,930.749 591.635,930.583 592.5,929.5C 596.088,924.324 598.588,918.657 600,912.5C 607.63,853.428 606.963,794.428 598,735.5C 589.21,677.052 577.71,619.385 563.5,562.5C 634.688,582.104 707.021,595.604 780.5,603C 824.623,607.061 868.623,606.061 912.5,600C 919.355,598.573 925.355,595.573 930.5,591C 929.899,589.395 928.899,588.062 927.5,587C 923.312,584.938 918.979,583.271 914.5,582C 815.427,570.099 717.094,553.766 619.5,533C 596.371,528.134 573.371,522.801 550.5,517C 524.71,428.463 495.044,341.296 461.5,255.5 Z M 1585.5,255.5 C 1551.96,341.296 1522.29,428.463 1496.5,517C 1416.21,536.458 1335.21,552.458 1253.5,565C 1213.13,570.421 1172.8,576.088 1132.5,582C 1126.65,583.167 1121.49,585.667 1117,589.5C 1116.25,590.635 1116.42,591.635 1117.5,592.5C 1122.68,596.088 1128.34,598.588 1134.5,600C 1193.57,607.63 1252.57,606.963 1311.5,598C 1369.95,589.21 1427.61,577.71 1484.5,563.5C 1464.9,634.688 1451.4,707.021 1444,780.5C 1439.94,824.623 1440.94,868.623 1447,912.5C 1448.43,919.355 1451.43,925.355 1456,930.5C 1457.61,929.899 1458.94,928.899 1460,927.5C 1462.06,923.312 1463.73,918.979 1465,914.5C 1476.9,815.427 1493.23,717.094 1514,619.5C 1518.87,596.371 1524.2,573.371 1530,550.5C 1618.54,524.71 1705.7,495.044 1791.5,461.5C 1775.67,485.139 1760.84,509.472 1747,534.5C 1690.41,636.673 1634.08,739.006 1578,841.5C 1563.21,870.741 1548.71,900.074 1534.5,929.5C 1528.92,927.126 1523.08,926.126 1517,926.5C 1505.08,927.291 1493.25,928.791 1481.5,931C 1363.3,953.421 1244.97,975.088 1126.5,996C 1094.27,1002.57 1062.27,1009.07 1030.5,1015.5C 1038.12,984.023 1044.95,952.356 1051,920.5C 1071.91,802.028 1093.58,683.695 1116,565.5C 1119.31,550.657 1120.65,535.657 1120,520.5C 1119.47,517.736 1118.63,515.07 1117.5,512.5C 1166.88,488.975 1215.55,464.141 1263.5,438C 1359.67,384.08 1456.01,330.413 1552.5,277C 1563.65,270.004 1574.65,262.837 1585.5,255.5 Z M 461.5,1791.5 C 495.044,1705.7 524.71,1618.54 550.5,1530C 630.791,1510.54 711.791,1494.54 793.5,1482C 833.87,1476.58 874.203,1470.91 914.5,1465C 920.348,1463.83 925.514,1461.33 930,1457.5C 930.749,1456.36 930.583,1455.36 929.5,1454.5C 924.324,1450.91 918.657,1448.41 912.5,1447C 853.428,1439.37 794.428,1440.04 735.5,1449C 677.052,1457.79 619.385,1469.29 562.5,1483.5C 582.104,1412.31 595.604,1339.98 603,1266.5C 607.061,1222.38 606.061,1178.38 600,1134.5C 598.573,1127.65 595.573,1121.65 591,1116.5C 589.395,1117.1 588.062,1118.1 587,1119.5C 584.938,1123.69 583.271,1128.02 582,1132.5C 570.099,1231.57 553.766,1329.91 533,1427.5C 528.134,1450.63 522.801,1473.63 517,1496.5C 428.463,1522.29 341.296,1551.96 255.5,1585.5C 271.326,1561.86 286.16,1537.53 300,1512.5C 356.587,1410.33 412.921,1307.99 469,1205.5C 483.787,1176.26 498.287,1146.93 512.5,1117.5C 518.085,1119.87 523.918,1120.87 530,1120.5C 541.917,1119.71 553.75,1118.21 565.5,1116C 683.695,1093.58 802.028,1071.91 920.5,1051C 952.726,1044.43 984.726,1037.93 1016.5,1031.5C 1008.88,1062.98 1002.05,1094.64 996,1126.5C 975.088,1244.97 953.421,1363.3 931,1481.5C 927.688,1496.34 926.355,1511.34 927,1526.5C 927.532,1529.26 928.366,1531.93 929.5,1534.5C 880.115,1558.03 831.448,1582.86 783.5,1609C 687.328,1662.92 590.995,1716.59 494.5,1770C 483.347,1777 472.347,1784.16 461.5,1791.5 Z M 1791.5,1585.5 C 1705.7,1551.96 1618.54,1522.29 1530,1496.5C 1510.54,1416.21 1494.54,1335.21 1482,1253.5C 1476.58,1213.13 1470.91,1172.8 1465,1132.5C 1463.83,1126.65 1461.33,1121.49 1457.5,1117C 1456.36,1116.25 1455.36,1116.42 1454.5,1117.5C 1450.91,1122.68 1448.41,1128.34 1447,1134.5C 1439.37,1193.57 1440.04,1252.57 1449,1311.5C 1457.79,1369.95 1469.29,1427.61 1483.5,1484.5C 1412.31,1464.9 1339.98,1451.4 1266.5,1444C 1222.38,1439.94 1178.38,1440.94 1134.5,1447C 1127.65,1448.43 1121.65,1451.43 1116.5,1456C 1117.1,1457.61 1118.1,1458.94 1119.5,1460C 1123.69,1462.06 1128.02,1463.73 1132.5,1465C 1231.57,1476.9 1329.91,1493.23 1427.5,1514C 1450.63,1518.87 1473.63,1524.2 1496.5,1530C 1522.29,1618.54 1551.96,1705.7 1585.5,1791.5C 1561.86,1775.67 1537.53,1760.84 1512.5,1747C 1410.33,1690.41 1307.99,1634.08 1205.5,1578C 1176.26,1563.21 1146.93,1548.71 1117.5,1534.5C 1119.87,1528.92 1120.87,1523.08 1120.5,1517C 1119.71,1505.08 1118.21,1493.25 1116,1481.5C 1093.58,1363.3 1071.91,1244.97 1051,1126.5C 1044.43,1094.27 1037.93,1062.27 1031.5,1030.5C 1062.98,1038.12 1094.64,1044.95 1126.5,1051C 1244.97,1071.91 1363.3,1093.58 1481.5,1116C 1496.34,1119.31 1511.34,1120.65 1526.5,1120C 1529.26,1119.47 1531.93,1118.63 1534.5,1117.5C 1558.03,1166.88 1582.86,1215.55 1609,1263.5C 1662.92,1359.67 1716.59,1456.01 1770,1552.5C 1777,1563.65 1784.16,1574.65 1791.5,1585.5 Z"/></g>
</svg>
