<?xml version="1.0" encoding="UTF-8"?>
<!DOCTYPE svg PUBLIC "-//W3C//DTD SVG 1.1//EN" "http://www.w3.org/Graphics/SVG/1.1/DTD/svg11.dtd">
<svg xmlns="http://www.w3.org/2000/svg" version="1.1" width="2048px" height="2048px" style="shape-rendering:geometricPrecision; text-rendering:geometricPrecision; image-rendering:optimizeQuality; fill-rule:evenodd; clip-rule:evenodd" xmlns:xlink="http://www.w3.org/1999/xlink">
<g><path style="opacity:0.988" fill="#fefffe" d="M 325.5,315.5 C 326.496,315.414 327.329,315.748 328,316.5C 335.116,326.618 342.616,336.451 350.5,346C 496.947,437.122 637.28,536.789 771.5,645C 828.341,692.175 880.175,744.341 927,801.5C 942.903,823.406 959.57,844.74 977,865.5C 999.859,898.904 1015.36,935.57 1023.5,975.5C 1035.1,919.293 1060.6,870.627 1100,829.5C 1122.73,797.42 1147.73,767.086 1175,738.5C 1217.38,695.772 1261.88,655.606 1308.5,618C 1433.28,520.933 1562.62,430.266 1696.5,346C 1704.55,336.285 1712.22,326.285 1719.5,316C 1720.48,315.409 1721.15,315.743 1721.5,317C 1717.97,323.233 1714.3,329.4 1710.5,335.5C 1710.83,335.833 1711.17,336.167 1711.5,336.5C 1717.3,333.198 1722.97,329.698 1728.5,326C 1729.64,325.251 1730.64,325.417 1731.5,326.5C 1721.21,334.279 1711.05,342.279 1701,350.5C 1614.67,488.153 1521.34,620.819 1421,748.5C 1368.97,814.199 1310.47,873.699 1245.5,927C 1223.59,942.903 1202.26,959.57 1181.5,977C 1148.1,999.859 1111.43,1015.36 1071.5,1023.5C 1127.71,1035.1 1176.37,1060.6 1217.5,1100C 1249.58,1122.73 1279.91,1147.73 1308.5,1175C 1351.23,1217.38 1391.39,1261.88 1429,1308.5C 1526.07,1433.28 1616.73,1562.62 1701,1696.5C 1710.72,1704.55 1720.72,1712.22 1731,1719.5C 1731.59,1720.48 1731.26,1721.15 1730,1721.5C 1723.77,1717.97 1717.6,1714.3 1711.5,1710.5C 1711.17,1710.83 1710.83,1711.17 1710.5,1711.5C 1713.8,1717.3 1717.3,1722.97 1721,1728.5C 1721.75,1729.64 1721.58,1730.64 1720.5,1731.5C 1712.72,1721.21 1704.72,1711.05 1696.5,1701C 1558.85,1614.67 1426.18,1521.34 1298.5,1421C 1232.8,1368.97 1173.3,1310.47 1120,1245.5C 1104.1,1223.59 1087.43,1202.26 1070,1181.5C 1047.14,1148.1 1031.64,1111.43 1023.5,1071.5C 1011.9,1127.71 986.401,1176.37 947,1217.5C 924.266,1249.58 899.266,1279.91 872,1308.5C 829.616,1351.23 785.116,1391.39 738.5,1429C 613.716,1526.07 484.383,1616.73 350.5,1701C 342.45,1710.72 334.784,1720.72 327.5,1731C 326.517,1731.59 325.85,1731.26 325.5,1730C 329.034,1723.77 332.701,1717.6 336.5,1711.5C 336.167,1711.17 335.833,1710.83 335.5,1710.5C 329.701,1713.8 324.034,1717.3 318.5,1721C 317.365,1721.75 316.365,1721.58 315.5,1720.5C 325.786,1712.72 335.953,1704.72 346,1696.5C 432.331,1558.85 525.665,1426.18 626,1298.5C 678.031,1232.8 736.531,1173.3 801.5,1120C 823.406,1104.1 844.74,1087.43 865.5,1070C 898.904,1047.14 935.57,1031.64 975.5,1023.5C 919.293,1011.9 870.627,986.401 829.5,947C 797.42,924.266 767.086,899.266 738.5,872C 695.772,829.616 655.606,785.116 618,738.5C 520.933,613.716 430.266,484.383 346,350.5C 336.285,342.45 326.285,334.784 316,327.5C 315.409,326.517 315.743,325.85 317,325.5C 323.233,329.034 329.4,332.701 335.5,336.5C 335.833,336.167 336.167,335.833 336.5,335.5C 332.282,329.057 328.615,322.39 325.5,315.5 Z M 362.5,362.5 C 370.455,367.151 378.121,372.318 385.5,378C 384.273,379.587 384.606,380.921 386.5,382C 405.167,396.333 423.833,410.667 442.5,425C 451.315,439.473 459.982,453.973 468.5,468.5C 459.982,453.973 451.315,439.473 442.5,425C 423.833,410.667 405.167,396.333 386.5,382C 384.606,380.921 384.273,379.587 385.5,378C 378.121,372.318 370.455,367.151 362.5,362.5 Z M 1684.5,362.5 C 1679.85,370.455 1674.68,378.121 1669,385.5C 1667.41,384.273 1666.08,384.606 1665,386.5C 1650.67,405.167 1636.33,423.833 1622,442.5C 1607.53,451.315 1593.03,459.982 1578.5,468.5C 1586.98,454.222 1595.48,439.889 1604,425.5C 1623.95,410.708 1643.45,395.375 1662.5,379.5C 1662.29,378.914 1661.96,378.414 1661.5,378C 1668.88,372.318 1676.55,367.151 1684.5,362.5 Z M 457.5,437.5 C 484.774,458.149 512.107,478.815 539.5,499.5C 543.382,506.597 546.716,513.931 549.5,521.5C 529.528,508.51 509.528,495.51 489.5,482.5C 478.077,467.969 467.411,452.969 457.5,437.5 Z M 1589.5,437.5 C 1579.59,452.969 1568.92,467.969 1557.5,482.5C 1537.47,495.51 1517.47,508.51 1497.5,521.5C 1500.28,513.931 1503.62,506.597 1507.5,499.5C 1534.89,478.815 1562.23,458.149 1589.5,437.5 Z M 437.5,457.5 C 452.969,467.411 467.969,478.077 482.5,489.5C 495.51,509.528 508.51,529.528 521.5,549.5C 513.931,546.716 506.597,543.382 499.5,539.5C 478.815,512.107 458.149,484.774 437.5,457.5 Z M 1609.5,457.5 C 1588.85,484.774 1568.18,512.107 1547.5,539.5C 1540.4,543.382 1533.07,546.716 1525.5,549.5C 1538.49,529.528 1551.49,509.528 1564.5,489.5C 1579.03,478.077 1594.03,467.411 1609.5,457.5 Z M 708.5,632.5 C 660.479,598.494 612.145,564.828 563.5,531.5C 557.957,522.914 552.291,514.414 546.5,506C 547.167,505.333 547.833,505.333 548.5,506C 602.812,546.982 656.145,589.149 708.5,632.5 Z M 1338.5,632.5 C 1390.85,589.149 1444.19,546.982 1498.5,506C 1499.17,505.333 1499.83,505.333 1500.5,506C 1494.71,514.414 1489.04,522.914 1483.5,531.5C 1434.85,564.828 1386.52,598.494 1338.5,632.5 Z M 508.5,508.5 C 525.949,520.066 543.282,531.9 560.5,544C 566.832,554.83 572.499,565.997 577.5,577.5C 572.499,565.997 566.832,554.83 560.5,544C 543.282,531.9 525.949,520.066 508.5,508.5 Z M 1538.5,508.5 C 1526.93,525.949 1515.1,543.282 1503,560.5C 1492.17,566.832 1481,572.499 1469.5,577.5C 1474.38,566.733 1479.55,556.066 1485,545.5C 1502.46,532.53 1520.29,520.197 1538.5,508.5 Z M 632.5,708.5 C 589.149,656.145 546.982,602.812 506,548.5C 505.333,547.833 505.333,547.167 506,546.5C 514.414,552.291 522.914,557.957 531.5,563.5C 564.828,612.145 598.494,660.479 632.5,708.5 Z M 1414.5,708.5 C 1448.51,660.479 1482.17,612.145 1515.5,563.5C 1524.09,557.957 1532.59,552.291 1541,546.5C 1541.67,547.167 1541.67,547.833 1541,548.5C 1500.02,602.812 1457.85,656.145 1414.5,708.5 Z M 581.5,559.5 C 620.342,585.678 658.342,613.011 695.5,641.5C 663.714,623.771 631.714,606.271 599.5,589C 592.851,579.527 586.851,569.694 581.5,559.5 Z M 1465.5,559.5 C 1460.15,569.694 1454.15,579.527 1447.5,589C 1415.29,606.271 1383.29,623.771 1351.5,641.5C 1388.66,613.011 1426.66,585.678 1465.5,559.5 Z M 559.5,581.5 C 569.694,586.851 579.527,592.851 589,599.5C 606.271,631.714 623.771,663.714 641.5,695.5C 613.011,658.342 585.678,620.342 559.5,581.5 Z M 1487.5,581.5 C 1461.32,620.342 1433.99,658.342 1405.5,695.5C 1423.23,663.714 1440.73,631.714 1458,599.5C 1467.47,592.851 1477.31,586.851 1487.5,581.5 Z M 614.5,614.5 C 698.343,659.906 778.343,711.073 854.5,768C 871.037,783.037 886.704,798.87 901.5,815.5C 878.574,799.026 854.907,783.526 830.5,769C 793.795,748.646 756.461,729.313 718.5,711C 708.565,693.405 698.231,676.072 687.5,659C 686.668,658.312 686.002,658.479 685.5,659.5C 691.705,674.122 697.705,688.789 703.5,703.5C 688.789,697.705 674.122,691.705 659.5,685.5C 658.479,686.002 658.312,686.668 659,687.5C 676.072,698.231 693.405,708.565 711,718.5C 735.538,770.591 762.871,820.925 793,869.5C 800.765,880.05 808.265,890.716 815.5,901.5C 798.87,886.704 783.037,871.037 768,854.5C 711.073,778.343 659.906,698.343 614.5,614.5 Z M 1432.5,614.5 C 1387.09,698.343 1335.93,778.343 1279,854.5C 1263.96,871.037 1248.13,886.704 1231.5,901.5C 1247.97,878.574 1263.47,854.907 1278,830.5C 1298.35,793.795 1317.69,756.461 1336,718.5C 1353.59,708.565 1370.93,698.231 1388,687.5C 1388.69,686.668 1388.52,686.002 1387.5,685.5C 1372.88,691.705 1358.21,697.705 1343.5,703.5C 1349.3,688.789 1355.3,674.122 1361.5,659.5C 1361,658.479 1360.33,658.312 1359.5,659C 1348.77,676.072 1338.44,693.405 1328.5,711C 1276.41,735.538 1226.08,762.871 1177.5,793C 1166.95,800.765 1156.28,808.265 1145.5,815.5C 1160.3,798.87 1175.96,783.037 1192.5,768C 1268.66,711.073 1348.66,659.906 1432.5,614.5 Z M 708.5,632.5 C 710.027,632.427 711.027,633.094 711.5,634.5C 709.973,634.573 708.973,633.906 708.5,632.5 Z M 1338.5,632.5 C 1338.03,633.906 1337.03,634.573 1335.5,634.5C 1335.97,633.094 1336.97,632.427 1338.5,632.5 Z M 632.5,708.5 C 633.906,708.973 634.573,709.973 634.5,711.5C 633.094,711.027 632.427,710.027 632.5,708.5 Z M 1414.5,708.5 C 1414.57,710.027 1413.91,711.027 1412.5,711.5C 1412.43,709.973 1413.09,708.973 1414.5,708.5 Z M 728.5,728.5 C 777.746,753.45 825.412,780.95 871.5,811C 899.412,830.233 925.579,851.733 950,875.5C 958.868,888.569 966.702,902.236 973.5,916.5C 952.821,898.02 929.821,882.853 904.5,871C 895.706,867.457 886.706,864.624 877.5,862.5C 877.351,863.552 877.517,864.552 878,865.5C 884.5,872 891,878.5 897.5,885C 930.259,905.412 959.759,929.912 986,958.5C 990.333,964.167 994.667,969.833 999,975.5C 1002.76,985.937 1005.59,996.603 1007.5,1007.5C 996.603,1005.59 985.937,1002.76 975.5,999C 955.684,984.329 937.851,967.495 922,948.5C 908.893,932.06 896.559,915.06 885,897.5C 878.5,891 872,884.5 865.5,878C 864.552,877.517 863.552,877.351 862.5,877.5C 866.357,894.57 872.857,910.57 882,925.5C 891.781,942.774 903.281,958.774 916.5,973.5C 902.236,966.702 888.569,958.868 875.5,950C 841.785,914.633 812.285,876.133 787,834.5C 766.714,799.595 747.214,764.261 728.5,728.5 Z M 1318.5,728.5 C 1293.55,777.746 1266.05,825.412 1236,871.5C 1216.77,899.412 1195.27,925.579 1171.5,950C 1158.43,958.868 1144.76,966.702 1130.5,973.5C 1148.98,952.821 1164.15,929.821 1176,904.5C 1179.54,895.706 1182.38,886.706 1184.5,877.5C 1183.45,877.351 1182.45,877.517 1181.5,878C 1175,884.5 1168.5,891 1162,897.5C 1141.59,930.259 1117.09,959.759 1088.5,986C 1082.83,990.333 1077.17,994.667 1071.5,999C 1061.06,1002.76 1050.4,1005.59 1039.5,1007.5C 1041.41,996.603 1044.24,985.937 1048,975.5C 1062.67,955.684 1079.5,937.851 1098.5,922C 1114.94,908.893 1131.94,896.559 1149.5,885C 1156,878.5 1162.5,872 1169,865.5C 1169.48,864.552 1169.65,863.552 1169.5,862.5C 1152.43,866.357 1136.43,872.857 1121.5,882C 1104.23,891.781 1088.23,903.281 1073.5,916.5C 1080.3,902.236 1088.13,888.569 1097,875.5C 1132.37,841.785 1170.87,812.285 1212.5,787C 1247.41,766.714 1282.74,747.214 1318.5,728.5 Z M 980.5,910.5 C 987.062,919.624 992.062,929.624 995.5,940.5C 994.017,938.906 992.517,937.24 991,935.5C 987.201,927.265 983.701,918.931 980.5,910.5 Z M 1066.5,910.5 C 1063.68,917.479 1060.85,924.479 1058,931.5C 1056.36,934.961 1054.19,937.961 1051.5,940.5C 1054.94,929.624 1059.94,919.624 1066.5,910.5 Z M 910.5,980.5 C 917.479,983.321 924.479,986.154 931.5,989C 934.961,990.643 937.961,992.81 940.5,995.5C 929.624,992.062 919.624,987.062 910.5,980.5 Z M 1136.5,980.5 C 1127.38,987.062 1117.38,992.062 1106.5,995.5C 1108.09,994.017 1109.76,992.517 1111.5,991C 1119.74,987.201 1128.07,983.701 1136.5,980.5 Z M 1007.5,989.5 C 1008.89,991.273 1010.06,993.273 1011,995.5C 1011.94,1000.19 1012.61,1004.86 1013,1009.5C 1010.24,1003.15 1008.41,996.48 1007.5,989.5 Z M 1038.5,989.5 C 1039.1,989.735 1039.43,990.235 1039.5,991C 1038.26,996.146 1037.09,1001.31 1036,1006.5C 1035.58,1007.67 1034.91,1008.67 1034,1009.5C 1034.32,1002.58 1035.82,995.917 1038.5,989.5 Z M 989.5,1008.5 C 989.735,1007.9 990.235,1007.57 991,1007.5C 996.146,1008.74 1001.31,1009.91 1006.5,1011C 1007.67,1011.42 1008.67,1012.09 1009.5,1013C 1002.58,1012.68 995.917,1011.18 989.5,1008.5 Z M 1054.5,1007.5 C 1055.55,1007.35 1056.55,1007.52 1057.5,1008C 1051.18,1011.16 1044.51,1012.83 1037.5,1013C 1043.07,1010.69 1048.74,1008.86 1054.5,1007.5 Z M 1014.5,1014.5 C 1012.66,1014.36 1012.33,1013.69 1013.5,1012.5C 1014.3,1012.96 1014.63,1013.62 1014.5,1014.5 Z M 1032.5,1014.5 C 1032.64,1012.66 1033.31,1012.33 1034.5,1013.5C 1034.04,1014.3 1033.38,1014.63 1032.5,1014.5 Z M 1014.5,1014.5 C 1015.83,1014.5 1016.5,1015.17 1016.5,1016.5C 1016.5,1015.17 1015.83,1014.5 1014.5,1014.5 Z M 1032.5,1014.5 C 1032.5,1015.83 1031.83,1016.5 1030.5,1016.5C 1030.5,1015.17 1031.17,1014.5 1032.5,1014.5 Z M 1016.5,1030.5 C 1016.5,1031.83 1015.83,1032.5 1014.5,1032.5C 1014.5,1031.17 1015.17,1030.5 1016.5,1030.5 Z M 1030.5,1030.5 C 1031.83,1030.5 1032.5,1031.17 1032.5,1032.5C 1032.5,1031.17 1031.83,1030.5 1030.5,1030.5 Z M 1014.5,1032.5 C 1014.36,1034.34 1013.69,1034.67 1012.5,1033.5C 1012.96,1032.7 1013.62,1032.37 1014.5,1032.5 Z M 1032.5,1032.5 C 1034.34,1032.64 1034.67,1033.31 1033.5,1034.5C 1032.7,1034.04 1032.37,1033.38 1032.5,1032.5 Z M 1006.5,1033.5 C 1010.24,1033.66 1010.24,1034.49 1006.5,1036C 1000.85,1037.5 995.187,1038.5 989.5,1039C 995.004,1036.32 1000.67,1034.49 1006.5,1033.5 Z M 1037.5,1034.5 C 1044.36,1034.15 1051.02,1035.65 1057.5,1039C 1050.64,1038.45 1043.97,1036.95 1037.5,1034.5 Z M 1012.5,1037.5 C 1012.85,1044.36 1011.35,1051.02 1008,1057.5C 1008.55,1050.64 1010.05,1043.97 1012.5,1037.5 Z M 1033.5,1037.5 C 1034.79,1038.06 1035.62,1039.06 1036,1040.5C 1037.5,1046.15 1038.5,1051.81 1039,1057.5C 1036,1051.18 1034.17,1044.51 1033.5,1037.5 Z M 1007.5,1039.5 C 1005.59,1050.4 1002.76,1061.06 999,1071.5C 984.329,1091.32 967.495,1109.15 948.5,1125C 932.06,1138.11 915.06,1150.44 897.5,1162C 891,1168.5 884.5,1175 878,1181.5C 877.517,1182.45 877.351,1183.45 877.5,1184.5C 894.57,1180.64 910.57,1174.14 925.5,1165C 942.774,1155.22 958.774,1143.72 973.5,1130.5C 966.702,1144.76 958.868,1158.43 950,1171.5C 914.633,1205.22 876.133,1234.72 834.5,1260C 799.595,1280.29 764.261,1299.79 728.5,1318.5C 753.45,1269.25 780.95,1221.59 811,1175.5C 830.233,1147.59 851.733,1121.42 875.5,1097C 888.569,1088.13 902.236,1080.3 916.5,1073.5C 898.02,1094.18 882.853,1117.18 871,1142.5C 867.457,1151.29 864.624,1160.29 862.5,1169.5C 863.552,1169.65 864.552,1169.48 865.5,1169C 872,1162.5 878.5,1156 885,1149.5C 905.412,1116.74 929.912,1087.24 958.5,1061C 964.167,1056.67 969.833,1052.33 975.5,1048C 985.937,1044.24 996.603,1041.41 1007.5,1039.5 Z M 1039.5,1039.5 C 1050.4,1041.41 1061.06,1044.24 1071.5,1048C 1091.32,1062.67 1109.15,1079.5 1125,1098.5C 1138.11,1114.94 1150.44,1131.94 1162,1149.5C 1168.5,1156 1175,1162.5 1181.5,1169C 1182.45,1169.48 1183.45,1169.65 1184.5,1169.5C 1180.64,1152.43 1174.14,1136.43 1165,1121.5C 1155.22,1104.23 1143.72,1088.23 1130.5,1073.5C 1144.76,1080.3 1158.43,1088.13 1171.5,1097C 1205.22,1132.37 1234.72,1170.87 1260,1212.5C 1280.29,1247.41 1299.79,1282.74 1318.5,1318.5C 1269.25,1293.55 1221.59,1266.05 1175.5,1236C 1147.59,1216.77 1121.42,1195.27 1097,1171.5C 1088.13,1158.43 1080.3,1144.76 1073.5,1130.5C 1094.18,1148.98 1117.18,1164.15 1142.5,1176C 1151.29,1179.54 1160.29,1182.38 1169.5,1184.5C 1169.65,1183.45 1169.48,1182.45 1169,1181.5C 1162.5,1175 1156,1168.5 1149.5,1162C 1116.74,1141.59 1087.24,1117.09 1061,1088.5C 1056.67,1082.83 1052.33,1077.17 1048,1071.5C 1044.24,1061.06 1041.41,1050.4 1039.5,1039.5 Z M 940.5,1051.5 C 938.906,1052.98 937.24,1054.48 935.5,1056C 927.265,1059.8 918.931,1063.3 910.5,1066.5C 919.624,1059.94 929.624,1054.94 940.5,1051.5 Z M 1106.5,1051.5 C 1117.38,1054.94 1127.38,1059.94 1136.5,1066.5C 1129.52,1063.68 1122.52,1060.85 1115.5,1058C 1112.04,1056.36 1109.04,1054.19 1106.5,1051.5 Z M 995.5,1106.5 C 992.062,1117.38 987.062,1127.38 980.5,1136.5C 983.321,1129.52 986.154,1122.52 989,1115.5C 990.643,1112.04 992.81,1109.04 995.5,1106.5 Z M 1051.5,1106.5 C 1052.98,1108.09 1054.48,1109.76 1056,1111.5C 1059.8,1119.74 1063.3,1128.07 1066.5,1136.5C 1059.94,1127.38 1054.94,1117.38 1051.5,1106.5 Z M 815.5,1145.5 C 799.026,1168.43 783.526,1192.09 769,1216.5C 748.646,1253.21 729.313,1290.54 711,1328.5C 693.405,1338.44 676.072,1348.77 659,1359.5C 658.312,1360.33 658.479,1361 659.5,1361.5C 674.122,1355.3 688.789,1349.3 703.5,1343.5C 697.705,1358.21 691.705,1372.88 685.5,1387.5C 686.002,1388.52 686.668,1388.69 687.5,1388C 698.231,1370.93 708.565,1353.59 718.5,1336C 770.591,1311.46 820.925,1284.13 869.5,1254C 880.05,1246.23 890.716,1238.73 901.5,1231.5C 886.704,1248.13 871.037,1263.96 854.5,1279C 778.343,1335.93 698.343,1387.09 614.5,1432.5C 659.906,1348.66 711.073,1268.66 768,1192.5C 783.037,1175.96 798.87,1160.3 815.5,1145.5 Z M 1231.5,1145.5 C 1248.13,1160.3 1263.96,1175.96 1279,1192.5C 1335.93,1268.66 1387.09,1348.66 1432.5,1432.5C 1348.66,1387.09 1268.66,1335.93 1192.5,1279C 1175.96,1263.96 1160.3,1248.13 1145.5,1231.5C 1168.43,1247.97 1192.09,1263.47 1216.5,1278C 1253.21,1298.35 1290.54,1317.69 1328.5,1336C 1338.44,1353.59 1348.77,1370.93 1359.5,1388C 1360.33,1388.69 1361,1388.52 1361.5,1387.5C 1355.3,1372.88 1349.3,1358.21 1343.5,1343.5C 1358.21,1349.3 1372.88,1355.3 1387.5,1361.5C 1388.52,1361 1388.69,1360.33 1388,1359.5C 1370.93,1348.77 1353.59,1338.44 1336,1328.5C 1311.46,1276.41 1284.13,1226.08 1254,1177.5C 1246.23,1166.95 1238.73,1156.28 1231.5,1145.5 Z M 634.5,1335.5 C 634.573,1337.03 633.906,1338.03 632.5,1338.5C 632.427,1336.97 633.094,1335.97 634.5,1335.5 Z M 1412.5,1335.5 C 1413.91,1335.97 1414.57,1336.97 1414.5,1338.5C 1413.09,1338.03 1412.43,1337.03 1412.5,1335.5 Z M 632.5,1338.5 C 598.494,1386.52 564.828,1434.85 531.5,1483.5C 522.914,1489.04 514.414,1494.71 506,1500.5C 505.333,1499.83 505.333,1499.17 506,1498.5C 546.982,1444.19 589.149,1390.85 632.5,1338.5 Z M 1414.5,1338.5 C 1457.85,1390.85 1500.02,1444.19 1541,1498.5C 1541.67,1499.17 1541.67,1499.83 1541,1500.5C 1532.59,1494.71 1524.09,1489.04 1515.5,1483.5C 1482.17,1434.85 1448.51,1386.52 1414.5,1338.5 Z M 641.5,1351.5 C 623.771,1383.29 606.271,1415.29 589,1447.5C 579.527,1454.15 569.694,1460.15 559.5,1465.5C 585.678,1426.66 613.011,1388.66 641.5,1351.5 Z M 1405.5,1351.5 C 1433.99,1388.66 1461.32,1426.66 1487.5,1465.5C 1477.31,1460.15 1467.47,1454.15 1458,1447.5C 1440.73,1415.29 1423.23,1383.29 1405.5,1351.5 Z M 695.5,1405.5 C 658.342,1433.99 620.342,1461.32 581.5,1487.5C 586.851,1477.31 592.851,1467.47 599.5,1458C 631.714,1440.73 663.714,1423.23 695.5,1405.5 Z M 1351.5,1405.5 C 1383.29,1423.23 1415.29,1440.73 1447.5,1458C 1454.15,1467.47 1460.15,1477.31 1465.5,1487.5C 1426.66,1461.32 1388.66,1433.99 1351.5,1405.5 Z M 711.5,1412.5 C 711.027,1413.91 710.027,1414.57 708.5,1414.5C 708.973,1413.09 709.973,1412.43 711.5,1412.5 Z M 1335.5,1412.5 C 1337.03,1412.43 1338.03,1413.09 1338.5,1414.5C 1336.97,1414.57 1335.97,1413.91 1335.5,1412.5 Z M 708.5,1414.5 C 656.145,1457.85 602.812,1500.02 548.5,1541C 547.833,1541.67 547.167,1541.67 546.5,1541C 552.291,1532.59 557.957,1524.09 563.5,1515.5C 612.145,1482.17 660.479,1448.51 708.5,1414.5 Z M 1338.5,1414.5 C 1386.52,1448.51 1434.85,1482.17 1483.5,1515.5C 1489.04,1524.09 1494.71,1532.59 1500.5,1541C 1499.83,1541.67 1499.17,1541.67 1498.5,1541C 1444.19,1500.02 1390.85,1457.85 1338.5,1414.5 Z M 577.5,1469.5 C 572.617,1480.27 567.45,1490.93 562,1501.5C 544.544,1514.47 526.711,1526.8 508.5,1538.5C 520.066,1521.05 531.9,1503.72 544,1486.5C 554.83,1480.17 565.997,1474.5 577.5,1469.5 Z M 1469.5,1469.5 C 1480.27,1474.38 1490.93,1479.55 1501.5,1485C 1514.47,1502.46 1526.8,1520.29 1538.5,1538.5C 1526.8,1520.29 1514.47,1502.46 1501.5,1485C 1490.93,1479.55 1480.27,1474.38 1469.5,1469.5 Z M 521.5,1497.5 C 508.51,1517.47 495.51,1537.47 482.5,1557.5C 467.969,1568.92 452.969,1579.59 437.5,1589.5C 458.149,1562.23 478.815,1534.89 499.5,1507.5C 506.597,1503.62 513.931,1500.28 521.5,1497.5 Z M 1525.5,1497.5 C 1533.07,1500.28 1540.4,1503.62 1547.5,1507.5C 1568.18,1534.89 1588.85,1562.23 1609.5,1589.5C 1594.03,1579.59 1579.03,1568.92 1564.5,1557.5C 1551.49,1537.47 1538.49,1517.47 1525.5,1497.5 Z M 549.5,1525.5 C 546.716,1533.07 543.382,1540.4 539.5,1547.5C 512.107,1568.18 484.774,1588.85 457.5,1609.5C 467.411,1594.03 478.077,1579.03 489.5,1564.5C 509.528,1551.49 529.528,1538.49 549.5,1525.5 Z M 1497.5,1525.5 C 1517.47,1538.49 1537.47,1551.49 1557.5,1564.5C 1568.92,1579.03 1579.59,1594.03 1589.5,1609.5C 1562.23,1588.85 1534.89,1568.18 1507.5,1547.5C 1503.62,1540.4 1500.28,1533.07 1497.5,1525.5 Z M 468.5,1578.5 C 460.023,1592.78 451.523,1607.11 443,1621.5C 423.045,1636.29 403.545,1651.63 384.5,1667.5C 384.709,1668.09 385.043,1668.59 385.5,1669C 378.121,1674.68 370.455,1679.85 362.5,1684.5C 367.151,1676.55 372.318,1668.88 378,1661.5C 379.587,1662.73 380.921,1662.39 382,1660.5C 396.333,1641.83 410.667,1623.17 425,1604.5C 439.473,1595.68 453.973,1587.02 468.5,1578.5 Z M 1578.5,1578.5 C 1592.78,1586.98 1607.11,1595.48 1621.5,1604C 1636.29,1623.95 1651.63,1643.45 1667.5,1662.5C 1668.09,1662.29 1668.59,1661.96 1669,1661.5C 1674.68,1668.88 1679.85,1676.55 1684.5,1684.5C 1679.85,1676.55 1674.68,1668.88 1669,1661.5C 1668.59,1661.96 1668.09,1662.29 1667.5,1662.5C 1651.63,1643.45 1636.29,1623.95 1621.5,1604C 1607.11,1595.48 1592.78,1586.98 1578.5,1578.5 Z"/></g>
</svg>
