<?xml version="1.0" encoding="UTF-8"?>
<!DOCTYPE svg PUBLIC "-//W3C//DTD SVG 1.1//EN" "http://www.w3.org/Graphics/SVG/1.1/DTD/svg11.dtd">
<svg xmlns="http://www.w3.org/2000/svg" version="1.1" width="2048px" height="2048px" style="shape-rendering:geometricPrecision; text-rendering:geometricPrecision; image-rendering:optimizeQuality; fill-rule:evenodd; clip-rule:evenodd" xmlns:xlink="http://www.w3.org/1999/xlink">
<g><path style="opacity:0.989" fill="#fefffe" d="M 1019.5,160.5 C 1022.25,160.187 1024.91,160.52 1027.5,161.5C 1027.17,162.167 1026.83,162.833 1026.5,163.5C 1037.63,172.809 1047.13,183.475 1055,195.5C 1086.04,239.922 1109.37,288.255 1125,340.5C 1151.22,423.657 1165.05,508.824 1166.5,596C 1166.18,646.074 1161.01,695.574 1151,744.5C 1217,653.486 1299.83,582.319 1399.5,531C 1442.21,511.095 1486.55,495.762 1532.5,485C 1541.41,482.959 1550.41,482.292 1559.5,483C 1560.34,484.011 1560.67,485.178 1560.5,486.5C 1561.82,486.33 1562.99,486.663 1564,487.5C 1564.71,496.591 1564.04,505.591 1562,514.5C 1542.95,599.9 1507.29,677.234 1455,746.5C 1411.71,804.12 1360.88,853.953 1302.5,896C 1407.61,875.106 1512.61,876.106 1617.5,899C 1670.38,909.719 1721.72,925.385 1771.5,946C 1806,962.402 1838.33,982.069 1868.5,1005C 1875.19,1011.51 1881.19,1017.67 1886.5,1023.5C 1876.68,1035.11 1865.01,1045.61 1851.5,1055C 1807.08,1086.04 1758.74,1109.37 1706.5,1125C 1623.34,1151.22 1538.18,1165.05 1451,1166.5C 1400.93,1166.18 1351.43,1161.01 1302.5,1151C 1393.51,1217 1464.68,1299.83 1516,1399.5C 1535.91,1442.21 1551.24,1486.55 1562,1532.5C 1564.04,1541.41 1564.71,1550.41 1564,1559.5C 1562.99,1560.34 1561.82,1560.67 1560.5,1560.5C 1560.67,1561.82 1560.34,1562.99 1559.5,1564C 1550.41,1564.71 1541.41,1564.04 1532.5,1562C 1447.1,1542.95 1369.77,1507.29 1300.5,1455C 1242.88,1411.71 1193.05,1360.88 1151,1302.5C 1171.89,1407.61 1170.89,1512.61 1148,1617.5C 1137.28,1670.38 1121.61,1721.72 1101,1771.5C 1084.6,1806 1064.93,1838.33 1042,1868.5C 1035.49,1875.19 1029.33,1881.19 1023.5,1886.5C 1011.89,1876.68 1001.39,1865.01 992,1851.5C 960.958,1807.08 937.625,1758.74 922,1706.5C 895.779,1623.34 881.946,1538.18 880.5,1451C 880.824,1400.93 885.99,1351.43 896,1302.5C 830.003,1393.51 747.17,1464.68 647.5,1516C 604.786,1535.91 560.453,1551.24 514.5,1562C 505.591,1564.04 496.591,1564.71 487.5,1564C 486.663,1562.99 486.33,1561.82 486.5,1560.5C 485.178,1560.67 484.011,1560.34 483,1559.5C 482.292,1550.41 482.959,1541.41 485,1532.5C 504.046,1447.1 539.713,1369.77 592,1300.5C 635.286,1242.88 686.119,1193.05 744.5,1151C 639.39,1171.89 534.39,1170.89 429.5,1148C 376.617,1137.28 325.284,1121.61 275.5,1101C 241.001,1084.6 208.668,1064.93 178.5,1042C 171.812,1035.49 165.812,1029.33 160.5,1023.5C 170.321,1011.89 181.988,1001.39 195.5,992C 239.922,960.958 288.255,937.625 340.5,922C 423.657,895.779 508.824,881.946 596,880.5C 646.074,880.824 695.574,885.99 744.5,896C 653.486,830.003 582.319,747.17 531,647.5C 511.095,604.786 495.762,560.453 485,514.5C 482.959,505.591 482.292,496.591 483,487.5C 484.011,486.663 485.178,486.33 486.5,486.5C 486.33,485.178 486.663,484.011 487.5,483C 496.591,482.292 505.591,482.959 514.5,485C 599.9,504.046 677.234,539.713 746.5,592C 804.12,635.286 853.953,686.119 896,744.5C 875.106,639.39 876.106,534.39 899,429.5C 909.719,376.617 925.385,325.284 946,275.5C 962.402,241.001 982.069,208.668 1005,178.5C 1010.01,173.318 1015.18,168.318 1020.5,163.5C 1019.87,162.583 1019.54,161.583 1019.5,160.5 Z M 1022.5,170.5 C 1023.5,170.414 1024.33,170.748 1025,171.5C 1072.22,245.3 1104.55,325.3 1122,411.5C 1144.93,510.314 1147.59,609.647 1130,709.5C 1121.02,749.436 1109.02,788.436 1094,826.5C 1070.77,881.958 1047.27,937.291 1023.5,992.5C 999.729,937.291 976.229,881.958 953,826.5C 906.242,710.926 893.242,591.592 914,468.5C 924.888,399.609 943.555,332.942 970,268.5C 985.208,234.407 1002.71,201.74 1022.5,170.5 Z M 990.5,990.5 C 925.646,957.25 858.313,929.75 788.5,908C 742.344,879.877 700.844,845.71 664,805.5C 581.072,714.213 522.238,608.879 487.5,489.5C 487.624,488.893 487.957,488.56 488.5,488.5C 487.957,488.56 487.624,488.893 487.5,489.5C 522.238,608.879 581.072,714.213 664,805.5C 700.844,845.71 742.344,879.877 788.5,908C 858.313,929.75 925.646,957.25 990.5,990.5 Z M 1558.5,488.5 C 1520.35,625.311 1450.01,742.811 1347.5,841C 1320.1,866.409 1290.43,888.742 1258.5,908C 1188.69,929.75 1121.35,957.25 1056.5,990.5C 1089.75,925.646 1117.25,858.313 1139,788.5C 1167.12,742.344 1201.29,700.844 1241.5,664C 1332.79,581.072 1438.12,522.238 1557.5,487.5C 1558.11,487.624 1558.44,487.957 1558.5,488.5 Z M 545.5,905.5 C 612.201,901.919 677.867,908.419 742.5,925C 770.91,933.137 798.91,942.47 826.5,953C 881.958,976.229 937.291,999.729 992.5,1023.5C 949.304,1041.51 906.304,1060.01 863.5,1079C 810.611,1102.07 755.944,1119.74 699.5,1132C 616.402,1145.19 533.402,1144.52 450.5,1130C 387.893,1118.85 327.227,1101.18 268.5,1077C 234.767,1061.97 202.433,1044.64 171.5,1025C 170.549,1024.28 170.383,1023.45 171,1022.5C 238.526,978.664 311.692,947.831 390.5,930C 441.562,917.044 493.229,908.877 545.5,905.5 Z M 1426.5,905.5 C 1548.47,901.86 1665.8,923.36 1778.5,970C 1812.93,985.041 1845.6,1002.87 1876.5,1023.5C 1816.97,1062.59 1752.64,1091.42 1683.5,1110C 1629.14,1125.41 1573.81,1135.41 1517.5,1140C 1445.45,1145.97 1374.45,1139.97 1304.5,1122C 1276.09,1113.86 1248.09,1104.53 1220.5,1094C 1165.04,1070.77 1109.71,1047.27 1054.5,1023.5C 1101.61,1003.63 1148.61,983.461 1195.5,963C 1244.62,942.181 1295.29,926.181 1347.5,915C 1373.81,910.393 1400.15,907.226 1426.5,905.5 Z M 1022.5,1054.5 C 1051.13,1116.85 1077.97,1180.18 1103,1244.5C 1135.88,1332.68 1148.22,1423.68 1140,1517.5C 1133.17,1595.98 1116.5,1672.31 1090,1746.5C 1072.27,1792.31 1050.1,1835.64 1023.5,1876.5C 996.901,1835.64 974.735,1792.31 957,1746.5C 930.496,1672.31 913.829,1595.98 907,1517.5C 900.663,1441.54 907.663,1366.88 928,1293.5C 935.54,1268.88 943.873,1244.55 953,1220.5C 973.174,1171.15 994.174,1122.15 1016,1073.5C 1018.75,1067.35 1020.91,1061.01 1022.5,1054.5 Z M 990.5,1056.5 C 957.25,1121.35 929.75,1188.69 908,1258.5C 879.877,1304.66 845.71,1346.16 805.5,1383C 714.213,1465.93 608.879,1524.76 489.5,1559.5C 488.893,1559.38 488.56,1559.04 488.5,1558.5C 526.652,1421.69 596.986,1304.19 699.5,1206C 726.901,1180.59 756.568,1158.26 788.5,1139C 858.313,1117.25 925.646,1089.75 990.5,1056.5 Z M 1056.5,1056.5 C 1121.35,1089.75 1188.69,1117.25 1258.5,1139C 1304.66,1167.12 1346.16,1201.29 1383,1241.5C 1465.93,1332.79 1524.76,1438.12 1559.5,1557.5C 1559.38,1558.11 1559.04,1558.44 1558.5,1558.5C 1559.04,1558.44 1559.38,1558.11 1559.5,1557.5C 1524.76,1438.12 1465.93,1332.79 1383,1241.5C 1346.16,1201.29 1304.66,1167.12 1258.5,1139C 1188.69,1117.25 1121.35,1089.75 1056.5,1056.5 Z"/></g>
</svg>
